<svg xmlns="http://www.w3.org/2000/svg" width="168" height="161" viewBox="0 0 168 161" fill="currentColor">
  <ellipse cx="84" cy="74" rx="77.2174" ry="74" fill="#D9D9D9"/>
  <path d="M97.0305 57.6843C97.0305 57.6843 96.9405 57.7597 96.918 57.7813C98.8406 59.516 100.752 61.3045 102.652 63.1254C104.552 64.9463 106.396 66.7672 108.206 68.6096C108.24 68.5665 108.285 68.5234 108.318 68.4803C108.138 65.0432 107.891 61.6709 107.576 58.3739C104.136 58.0722 100.617 57.8459 97.0192 57.6843H97.0305Z" fill="black"/>
  <path d="M93.7475 57.5549C93.7588 57.8243 93.7588 58.1044 93.7813 58.3846C93.9837 58.1906 94.2085 58.0075 94.4109 57.8027C94.3209 57.7165 94.231 57.6304 94.1411 57.5657C94.0062 57.5549 93.8712 57.5549 93.7475 57.5549Z" fill="black"/>
  <path d="M93.8488 60.5394C93.9499 64.2027 94.0399 67.8014 94.0849 71.3246C97.7613 71.3785 101.516 71.4539 105.328 71.5616C105.89 70.9798 106.463 70.398 107.025 69.827C105.215 67.9738 103.349 66.1421 101.438 64.2997C99.5152 62.468 97.5926 60.6687 95.6588 58.9125C95.0742 59.4512 94.4671 59.9899 93.86 60.5394H93.8488Z" fill="black"/>
  <path d="M94.1298 104.424C94.2198 104.337 94.3209 104.251 94.4109 104.187C94.2085 103.993 93.9837 103.809 93.7813 103.605C93.77 103.885 93.77 104.165 93.7475 104.434C93.8824 104.434 93.9949 104.434 94.1298 104.424Z" fill="black"/>
  <path d="M108.195 71.0444C108.004 71.2384 107.812 71.4431 107.621 71.637C107.902 71.637 108.183 71.6478 108.464 71.6693C108.464 71.5401 108.453 71.4108 108.453 71.303C108.363 71.2168 108.296 71.1306 108.206 71.0444H108.195Z" fill="black"/>
  <path d="M118.437 57.8026C118.875 57.3393 119.303 56.8544 119.73 56.3911C118.133 54.7211 116.514 53.0834 114.817 51.4565C113.119 49.8295 111.399 48.278 109.656 46.748C109.173 47.1575 108.678 47.5561 108.195 47.9763C108.588 50.8315 108.948 53.7837 109.24 56.8113C112.377 57.0915 115.446 57.4147 118.426 57.8026H118.437Z" fill="black"/>
  <path d="M101.426 97.6896C103.349 95.8471 105.215 94.0047 107.025 92.1515C106.463 91.5912 105.901 91.0094 105.328 90.4276C101.528 90.5246 97.75 90.6108 94.0736 90.6647C94.0286 94.1663 93.9387 97.7865 93.8375 101.439C94.4446 101.989 95.0517 102.538 95.6363 103.066C97.5701 101.331 99.5039 99.532 101.415 97.7003L101.426 97.6896Z" fill="black"/>
  <path d="M98.8181 56.0894C101.752 56.2403 104.608 56.4342 107.43 56.6605C107.16 54.1823 106.879 51.7581 106.564 49.377C104.102 51.4672 101.516 53.719 98.8181 56.0894Z" fill="black"/>
  <path d="M107.374 42.5784C108.161 43.2249 108.937 43.8821 109.724 44.5393C110.825 43.6235 111.916 42.7185 113.018 41.8242C111.073 41.4579 109.094 41.1454 107.07 40.8545C107.172 41.4148 107.273 41.9966 107.385 42.5784H107.374Z" fill="black"/>
  <path d="M107.914 46.0586C108.071 45.9293 108.24 45.7892 108.386 45.6599C108.183 45.4875 107.992 45.3043 107.779 45.132C107.824 45.4444 107.869 45.7569 107.914 46.0478V46.0586Z" fill="black"/>
  <path d="M120.483 58.0829C120.809 58.126 121.135 58.1691 121.439 58.2122C121.259 58.0183 121.09 57.8136 120.91 57.6196C120.764 57.7705 120.629 57.9321 120.483 58.0829Z" fill="black"/>
  <path d="M109.398 58.546C109.634 61.2288 109.836 63.9763 109.982 66.7669C112.399 64.2565 114.749 61.7783 116.987 59.3757C114.513 59.0632 111.972 58.7831 109.386 58.546H109.398Z" fill="black"/>
  <path d="M103.776 88.8439C101.64 86.6783 99.414 84.4587 97.0754 82.1746C96.0973 83.1227 95.1304 84.0709 94.1411 85.0298C94.1411 86.3443 94.1298 87.6695 94.1073 89.0163C97.4352 88.984 100.651 88.9193 103.765 88.8439H103.776Z" fill="black"/>
  <path d="M125.958 60.6902C126.048 60.7872 126.138 60.8841 126.206 60.9919C126.206 60.9057 126.194 60.8195 126.172 60.7225C126.093 60.7225 126.026 60.7117 125.947 60.6902H125.958Z" fill="black"/>
  <path d="M124.115 58.6C124.699 58.6969 125.295 58.7831 125.88 58.8801C125.587 56.9623 125.25 55.066 124.879 53.2128C123.968 54.2471 123.024 55.2922 122.046 56.3481C122.743 57.0916 123.429 57.8458 124.115 58.6Z" fill="black"/>
  <path d="M110.972 45.6492C112.681 47.1576 114.378 48.6876 116.042 50.2822C117.706 51.8768 119.303 53.5038 120.877 55.1307C122.091 53.7839 123.283 52.4586 124.429 51.1549C123.878 48.6984 123.283 46.3065 122.619 43.9792C120.191 43.3435 117.695 42.7617 115.131 42.2445C113.794 43.3327 112.399 44.464 110.972 45.6492Z" fill="black"/>
  <path d="M124.519 44.4856C124.98 46.1556 125.419 47.8472 125.812 49.5711C126.914 48.2997 127.993 47.0607 129.016 45.8432C127.544 45.3799 126.048 44.9273 124.519 44.4856Z" fill="black"/>
  <path d="M107.43 105.329C104.608 105.566 101.741 105.749 98.8181 105.889C101.516 108.281 104.08 110.511 106.564 112.612C106.89 110.242 107.172 107.807 107.43 105.318V105.329Z" fill="black"/>
  <path d="M107.914 115.941C107.869 116.254 107.824 116.545 107.779 116.857C107.981 116.685 108.172 116.502 108.386 116.34C108.228 116.211 108.071 116.071 107.914 115.941Z" fill="black"/>
  <path d="M109.701 117.439C108.914 118.107 108.15 118.786 107.374 119.432C107.273 119.993 107.172 120.574 107.059 121.145C109.083 120.844 111.05 120.542 113.007 120.176C111.916 119.282 110.814 118.366 109.701 117.45V117.439Z" fill="black"/>
  <path d="M114.817 110.543C116.514 108.906 118.145 107.246 119.741 105.598C119.314 105.135 118.887 104.661 118.448 104.187C115.469 104.564 112.399 104.908 109.251 105.189C108.959 108.216 108.599 111.147 108.206 114.024C108.689 114.433 109.195 114.842 109.667 115.252C111.41 113.722 113.13 112.17 114.828 110.543H114.817Z" fill="black"/>
  <path d="M109.398 103.443C111.995 103.206 114.524 102.915 117.009 102.613C114.817 100.254 112.478 97.7757 109.993 95.1898C109.847 98.0019 109.645 100.739 109.409 103.443H109.398Z" fill="black"/>
  <path d="M107.599 103.605C107.914 100.308 108.161 96.9353 108.341 93.4875C108.296 93.4552 108.262 93.4121 108.228 93.3798C106.43 95.2114 104.574 97.0538 102.674 98.8747C100.752 100.696 98.8518 102.484 96.9406 104.219C96.9855 104.251 97.0192 104.294 97.053 104.316C100.651 104.143 104.181 103.906 107.61 103.605H107.599Z" fill="black"/>
  <path d="M82.6508 47.901C80.6271 46.2956 78.6147 44.7657 76.6247 43.2788C76.4223 46.4573 76.2536 49.8081 76.1075 53.3529C78.2886 51.4781 80.4697 49.6465 82.6508 47.901Z" fill="black"/>
  <path d="M76.0176 55.6694C76.0176 55.7233 76.0063 55.7879 76.0063 55.8418C78.6484 55.7664 81.3017 55.7233 84 55.7233C86.6983 55.7233 89.3628 55.7664 91.9937 55.8418V55.6694C89.3291 53.3529 86.6645 51.1226 84 48.9893C81.3467 51.1226 78.6709 53.3529 76.0176 55.6694Z" fill="black"/>
  <path d="M84 57.3718C81.2905 57.3718 78.6035 57.4149 75.9501 57.4903C75.9164 58.2769 75.9052 59.0742 75.8714 59.8823C78.6484 62.3819 81.3692 64.8708 84 67.3274C86.6421 64.8708 89.3516 62.3819 92.1286 59.8823C92.1173 59.0742 92.0836 58.2877 92.0499 57.4903C89.3965 57.4149 86.7095 57.3718 84 57.3718Z" fill="black"/>
  <path d="M72.3748 21.3637C73.7914 21.924 75.2081 22.5273 76.6247 23.163C76.7146 22.4304 76.8046 21.7193 76.8945 21.0189C75.3767 21.1051 73.8702 21.2344 72.3861 21.3745L72.3748 21.3637Z" fill="black"/>
  <path d="M63.1332 40.542C63.0433 40.5528 62.9534 40.5743 62.8522 40.5851C62.8409 40.6605 62.8184 40.7252 62.8184 40.8006C62.9196 40.7144 63.0208 40.6282 63.1332 40.542Z" fill="black"/>
  <path d="M85.3492 47.901C87.5303 49.6573 89.7114 51.4781 91.8925 53.3529C91.7463 49.8081 91.5664 46.4573 91.3753 43.2788C89.3741 44.7657 87.3504 46.2849 85.3492 47.901Z" fill="black"/>
  <path d="M69.4405 38.2146C69.3505 38.1608 69.2831 38.0961 69.1932 38.0422C69.092 38.1177 68.9908 38.1823 68.8783 38.2685C69.0695 38.2362 69.2493 38.2254 69.4405 38.2146Z" fill="black"/>
  <path d="M67.6978 37.0513C66.4724 36.2432 65.2469 35.4674 64.0439 34.724C63.7516 36.0816 63.4592 37.4607 63.1782 38.8829C63.9989 38.786 64.8309 38.689 65.6516 38.6028C66.3262 38.0748 67.012 37.5577 67.6978 37.062V37.0513Z" fill="black"/>
  <path d="M91.1055 21.0082C91.1954 21.6977 91.2854 22.3981 91.3753 23.0984C92.7469 22.495 94.1298 21.8917 95.5014 21.3637C94.0398 21.2129 92.5783 21.0944 91.1055 21.0082Z" fill="black"/>
  <path d="M98.5483 38.2147C98.7281 38.2255 98.8856 38.247 99.0542 38.2578C98.9643 38.2039 98.8743 38.1285 98.7844 38.0638C98.7057 38.1177 98.627 38.1608 98.5483 38.2147Z" fill="black"/>
  <path d="M76.872 39.3784C76.827 40.0034 76.782 40.6498 76.7371 41.2855C79.143 43.0417 81.5603 44.8842 83.9887 46.8128C86.4172 44.8949 88.8457 43.0417 91.2404 41.2855C91.1954 40.6498 91.1505 40.0034 91.1055 39.3784C88.7557 39.2815 86.3835 39.2061 83.9775 39.2061C81.5715 39.2061 79.1993 39.2815 76.8495 39.3784H76.872Z" fill="black"/>
  <path d="M110.421 88.6497C112.838 86.0961 115.154 83.5318 117.369 80.9891C115.154 78.4571 112.838 75.9035 110.421 73.3392H110.263C110.342 75.8604 110.376 78.4032 110.376 80.9891C110.376 83.5749 110.331 86.1285 110.263 88.6497H110.421Z" fill="black"/>
  <path d="M112.86 73.4256C114.817 75.5158 116.706 77.5953 118.527 79.6532C120.18 77.7353 121.776 75.8067 123.294 73.9104C120 73.7273 116.526 73.5549 112.872 73.4148L112.86 73.4256Z" fill="black"/>
  <path d="M118.516 82.336C116.705 84.4047 114.817 86.4733 112.849 88.5636C116.503 88.4235 119.988 88.2511 123.271 88.068C121.754 86.1717 120.157 84.2538 118.504 82.3252L118.516 82.336Z" fill="black"/>
  <path d="M108.644 80.9892C108.644 78.4034 108.599 75.8175 108.532 73.2748C107.734 73.264 106.913 73.2317 106.081 73.1993C103.54 75.7744 100.954 78.3711 98.2784 81C100.831 83.5104 103.439 86.1286 106.047 88.7899C106.868 88.7576 107.711 88.736 108.521 88.7037C108.599 86.161 108.633 83.5859 108.633 80.9892H108.644Z" fill="black"/>
  <path d="M108.453 90.6969C108.453 90.5784 108.464 90.4599 108.464 90.3306C108.172 90.3413 107.891 90.3413 107.599 90.3629C107.79 90.5568 107.992 90.7723 108.183 90.9663C108.273 90.8801 108.363 90.7939 108.453 90.6969Z" fill="black"/>
  <path d="M103.754 73.1455C100.639 73.0701 97.4464 73.0055 94.1073 72.9731C94.1186 74.3199 94.1411 75.6452 94.1411 76.9597C95.1192 77.8971 96.0861 78.856 97.0642 79.8149C99.3465 77.5631 101.573 75.3543 103.765 73.1455H103.754Z" fill="black"/>
  <path d="M95.8725 80.9892C95.2991 80.4397 94.7369 79.8902 94.1635 79.3407V82.6592C94.7369 82.1097 95.3103 81.5602 95.8725 80.9892Z" fill="black"/>
  <path d="M100.291 37.062C100.965 37.5576 101.651 38.064 102.326 38.5919C103.147 38.6781 103.99 38.7751 104.822 38.8721C104.541 37.4606 104.248 36.0707 103.956 34.7131C102.742 35.4566 101.528 36.2431 100.302 37.062H100.291Z" fill="black"/>
  <path d="M123.327 60.2593C121.922 60.0438 120.483 59.8498 119.033 59.6559C116.211 62.705 113.22 65.8619 110.095 69.0943C110.128 69.5899 110.14 70.1071 110.151 70.6242C110.522 71.0013 110.904 71.3892 111.253 71.7663C115.705 71.9172 120.157 72.1219 124.497 72.3697C125.385 71.2384 126.251 70.1178 127.094 69.0188C126.948 67.3488 126.779 65.7111 126.588 64.0734C125.531 62.802 124.429 61.5306 123.316 60.2593H123.327Z" fill="black"/>
  <path d="M104.855 40.542C104.957 40.6282 105.08 40.7252 105.193 40.8114C105.182 40.7359 105.159 40.6605 105.148 40.5851C105.047 40.5743 104.945 40.5528 104.855 40.542Z" fill="black"/>
  <path d="M127.296 71.7446C127.094 71.9817 126.903 72.2403 126.712 72.4988C126.914 72.5096 127.139 72.5312 127.341 72.5419C127.33 72.2726 127.308 72.0032 127.296 71.7554V71.7446Z" fill="black"/>
  <path d="M96.4009 39.68C95.2654 40.4665 94.1298 41.2746 92.9943 42.0934C93.2641 46.2955 93.4778 50.5729 93.6464 54.8719C94.0399 55.2167 94.4446 55.5614 94.8269 55.917C95.389 55.9493 95.9287 55.9601 96.4796 55.9709C99.74 53.0726 103.023 50.2066 106.283 47.4375C106.081 46.0476 105.867 44.6793 105.631 43.3217C104.316 42.2443 102.989 41.1884 101.663 40.1648C99.9199 39.9709 98.166 39.8093 96.4009 39.6692V39.68Z" fill="black"/>
  <path d="M74.1625 101.428C74.0501 97.7865 73.9602 94.1771 73.9152 90.6754C70.2388 90.6215 66.4724 90.5353 62.6611 90.4384C62.0989 91.0202 61.5255 91.602 60.9634 92.1623C62.796 94.0262 64.6623 95.8687 66.5623 97.7003C68.4848 99.532 70.4074 101.321 72.3412 103.066C72.9258 102.527 73.5554 101.978 74.1512 101.428H74.1625Z" fill="black"/>
  <path d="M60.0752 115.963C59.9291 116.092 59.7604 116.232 59.603 116.362C59.8053 116.534 60.019 116.696 60.2101 116.868C60.1651 116.566 60.1202 116.265 60.0752 115.963Z" fill="black"/>
  <path d="M60.6374 119.432C59.8504 118.786 59.0746 118.129 58.2876 117.471C57.1858 118.387 56.0952 119.292 54.9934 120.176C56.9384 120.542 58.9172 120.855 60.9184 121.146C60.8172 120.585 60.716 120.014 60.6261 119.432H60.6374Z" fill="black"/>
  <path d="M57.8941 69.0511C54.8698 65.9265 51.8791 62.7589 48.9897 59.6343C47.5281 59.8282 46.0891 60.0437 44.6837 60.2592C43.5482 61.5306 42.4688 62.802 41.3895 64.0733C41.1984 65.7434 41.0186 67.4242 40.8836 69.1158C41.6931 70.1932 42.5363 71.2814 43.402 72.3696C47.7643 72.1326 52.2501 71.9171 56.7135 71.7663L57.8154 70.6242C57.8266 70.0962 57.8603 69.5791 57.8716 69.0511H57.8941Z" fill="black"/>
  <path d="M71.0594 104.197C69.1594 102.473 67.2593 100.696 65.3481 98.864C63.448 97.0431 61.593 95.2222 59.7716 93.369C59.7267 93.4121 59.6929 93.4552 59.6592 93.4768C59.8391 96.9246 60.0864 100.308 60.4012 103.594C63.8415 103.896 67.3493 104.133 70.947 104.305L71.0594 104.187V104.197Z" fill="black"/>
  <path d="M49.5518 104.187C49.1134 104.671 48.6862 105.135 48.259 105.598C49.8554 107.246 51.4857 108.906 53.1833 110.543C54.881 112.16 56.5899 113.722 58.3325 115.252C58.816 114.842 59.3219 114.422 59.8053 113.991C59.4118 111.136 59.0521 108.216 58.771 105.189C55.6005 104.908 52.5312 104.564 49.5518 104.187Z" fill="black"/>
  <path d="M58.6023 58.546C56.0052 58.7831 53.4756 59.074 50.991 59.3757C53.1833 61.7352 55.5218 64.2134 58.0065 66.7992C58.1526 63.9871 58.355 61.2288 58.5911 58.546H58.6023Z" fill="black"/>
  <path d="M60.5811 56.6497C63.3806 56.4234 66.2588 56.2403 69.1819 56.0787C66.4949 53.7083 63.9202 51.4564 61.4581 49.3662C61.1208 51.7366 60.8397 54.1716 60.5923 56.6497H60.5811Z" fill="black"/>
  <path d="M60.2101 45.1212C60.0077 45.2936 59.7941 45.466 59.5917 45.6492C59.7491 45.7892 59.9178 45.9185 60.0752 46.0586C60.1202 45.7461 60.1651 45.4229 60.2101 45.1212Z" fill="black"/>
  <path d="M60.9296 40.8545C58.9284 41.1562 56.9384 41.4579 55.0047 41.8242C56.084 42.7185 57.1745 43.6235 58.2763 44.5394C59.0633 43.8714 59.8391 43.2141 60.6374 42.5569C60.7273 41.9751 60.8284 41.4148 60.9296 40.8438V40.8545Z" fill="black"/>
  <path d="M58.3325 46.748C56.5899 48.278 54.8697 49.8403 53.1721 51.4565C51.4744 53.0834 49.8442 54.7319 48.2477 56.4019C48.6749 56.8652 49.1021 57.3393 49.5406 57.8134C52.5199 57.4363 55.5893 57.0915 58.7597 56.8113C59.0521 53.7837 59.3894 50.8315 59.7941 47.9763C59.3107 47.5561 58.816 47.1575 58.3325 46.748Z" fill="black"/>
  <path d="M42.1203 58.8909C42.7049 58.7939 43.3008 58.7077 43.908 58.6108C44.5825 57.8566 45.2683 57.1024 45.9766 56.3589C44.9985 55.303 44.0541 54.2364 43.1322 53.202C42.7612 55.066 42.4239 56.9623 42.1316 58.8801L42.1203 58.8909Z" fill="black"/>
  <path d="M60.4012 58.3739C60.0864 61.6816 59.8391 65.054 59.6592 68.5018C59.7041 68.5342 59.7379 68.5773 59.7716 68.6204C61.5817 66.7672 63.448 64.9463 65.3481 63.1254C67.2369 61.3045 69.1482 59.516 71.0707 57.7813C71.037 57.749 70.992 57.7059 70.9583 57.6843C67.3718 57.8567 63.8528 58.083 60.4012 58.3739Z" fill="black"/>
  <path d="M45.3808 43.9792C44.7175 46.3064 44.1103 48.7091 43.5706 51.1765C44.7062 52.4478 45.8867 53.7946 47.1234 55.1522C48.6862 53.5145 50.2939 51.8876 51.9578 50.293C53.6218 48.7091 55.3195 47.1684 57.0284 45.66C55.6005 44.4748 54.2064 43.3435 52.8685 42.2552C50.3051 42.7832 47.8092 43.3542 45.3808 43.9899V43.9792Z" fill="black"/>
  <path d="M46.55 58.2121C46.8761 58.1583 47.2021 58.1152 47.5281 58.0721C47.3932 57.9212 47.2471 57.7596 47.1122 57.6088C46.921 57.8027 46.7411 58.0182 46.55 58.2121Z" fill="black"/>
  <path d="M41.8393 60.7225C41.828 60.8195 41.8055 60.9057 41.7943 60.9919L42.0641 60.6902C41.9854 60.701 41.918 60.7225 41.8393 60.7225Z" fill="black"/>
  <path d="M43.4695 44.4856C41.9405 44.9273 40.4452 45.3799 38.9723 45.8432C39.973 47.0499 41.0522 48.289 42.1765 49.5711C42.57 47.8472 43.0198 46.1556 43.4695 44.4856Z" fill="black"/>
  <path d="M73.8702 57.5764C73.769 57.6519 73.679 57.7273 73.5891 57.8135C73.7915 57.9966 74.0163 58.1906 74.2187 58.3953C74.2299 58.1152 74.2525 57.835 74.2525 57.5657C74.1175 57.5657 74.0051 57.5657 73.8702 57.5764Z" fill="black"/>
  <path d="M74.2524 104.434C74.2524 104.165 74.2412 103.896 74.2412 103.626C74.0388 103.809 73.8252 104.003 73.6228 104.186C73.7128 104.262 73.7802 104.337 73.8702 104.413C74.0051 104.424 74.14 104.424 74.2524 104.424V104.434Z" fill="black"/>
  <path d="M54.1839 29.0779C53.4756 28.7224 52.8123 28.4099 52.1377 28.0759C51.7554 28.3453 51.3507 28.6039 50.9685 28.884C49.8779 31.2005 48.8548 33.6355 47.9104 36.1675C49.6756 37.5359 51.4969 38.9904 53.3519 40.488C55.9153 39.9817 58.5574 39.5291 61.2444 39.1412C61.593 37.2773 61.9865 35.4564 62.38 33.6894C59.5805 31.9978 56.8485 30.4571 54.1839 29.0779Z" fill="black"/>
  <path d="M45.9092 42.169C47.6518 41.7164 49.417 41.2962 51.2158 40.9084C49.8779 39.8309 48.5737 38.8181 47.3258 37.8376C46.8198 39.2491 46.3476 40.6929 45.9092 42.1582V42.169Z" fill="black"/>
  <path d="M44.7736 33.7543C45.347 34.196 45.9429 34.6486 46.5388 35.1011C47.0672 33.6896 47.6293 32.3213 48.2252 30.9745C47.0559 31.8795 45.9091 32.8061 44.7736 33.7543Z" fill="black"/>
  <path d="M60.4012 90.3629C60.1202 90.3521 59.8278 90.3521 59.5355 90.3306C59.5468 90.4599 59.5468 90.5892 59.5468 90.7077C59.6367 90.7939 59.7266 90.8801 59.8166 90.977C60.0077 90.7615 60.2101 90.5676 60.4012 90.3521V90.3629Z" fill="black"/>
  <path d="M82.2574 90.7294C82.842 91.2789 83.4266 91.8284 84 92.3671C84.5734 91.8284 85.1467 91.2789 85.7426 90.7294C85.158 90.7401 84.5734 90.7401 84 90.7401C83.4266 90.7401 82.8532 90.7401 82.2574 90.7294Z" fill="black"/>
  <path d="M84 69.6222C83.4266 70.1609 82.8532 70.6996 82.2574 71.2491H85.7426C85.158 70.6996 84.5734 70.1609 84 69.6222Z" fill="black"/>
  <path d="M85.2255 68.4692C86.2486 69.4174 87.2267 70.344 88.2048 71.2706C89.5764 71.2814 90.9818 71.3029 92.3759 71.3137C92.331 68.1245 92.2747 65.0214 92.196 62.0585C89.9362 64.1056 87.609 66.2389 85.2255 68.48V68.4692Z" fill="black"/>
  <path d="M89.9699 86.7105C90.7907 85.9239 91.6114 85.1266 92.4209 84.3401C92.4321 83.2411 92.4321 82.1313 92.4321 80.9893C92.4321 79.8472 92.4321 78.759 92.4209 77.6492C91.6114 76.8627 90.8019 76.0761 89.9699 75.2788C89.1267 74.4707 88.3172 73.695 87.4965 72.9192C86.3272 72.9192 85.1805 72.9084 84 72.9084C82.8195 72.9084 81.6727 72.9192 80.5035 72.9192C79.694 73.695 78.862 74.4707 78.0413 75.2788C77.1981 76.0654 76.3886 76.8627 75.5791 77.6492C75.5679 78.7482 75.5678 79.8579 75.5678 80.9893C75.5678 82.1206 75.5679 83.2411 75.5791 84.3401C76.3886 85.1266 77.1981 85.9132 78.0413 86.7105C78.862 87.5185 79.694 88.2943 80.5035 89.0701C81.6727 89.0701 82.8195 89.0808 84 89.0808C85.1805 89.0808 86.3272 89.0701 87.4965 89.0701C88.3172 88.2835 89.1492 87.497 89.9699 86.7105Z" fill="black"/>
  <path d="M92.4209 75.2895C92.4096 74.503 92.4097 73.7165 92.3872 72.9407C91.5777 72.9407 90.7794 72.9299 89.9587 72.9299C90.3747 73.3286 90.7795 73.7165 91.1842 74.1043C91.6002 74.4814 92.0049 74.8909 92.4209 75.2895Z" fill="black"/>
  <path d="M95.8837 37.9993C96.3671 37.6546 96.8618 37.3313 97.3565 36.9973C95.7038 35.8337 94.0511 34.7239 92.3984 33.6465C92.4996 35.0148 92.6008 36.3832 92.7132 37.7839C93.77 37.8377 94.8381 37.9239 95.8837 37.9993Z" fill="black"/>
  <path d="M119.775 30.9745C120.359 32.3213 120.922 33.6897 121.472 35.1119C122.057 34.6486 122.653 34.2068 123.226 33.7651C122.091 32.8062 120.944 31.8688 119.775 30.9637V30.9745Z" fill="black"/>
  <path d="M115.885 28.0759C115.188 28.4207 114.524 28.7224 113.839 29.0779C111.174 30.4463 108.431 31.987 105.62 33.6894C106.013 35.4564 106.407 37.2773 106.756 39.1412C109.443 39.5184 112.085 39.9709 114.659 40.488C116.503 38.9904 118.336 37.5359 120.09 36.1675C119.145 33.6355 118.133 31.2113 117.032 28.884C116.649 28.6039 116.267 28.3453 115.885 28.0759Z" fill="black"/>
  <path d="M92.8706 121.921C92.8594 122.137 92.8369 122.331 92.8256 122.546C93.1067 122.535 93.3766 122.503 93.6464 122.492C93.3766 122.309 93.118 122.115 92.8594 121.921H92.8706Z" fill="black"/>
  <path d="M93.7139 39.5077C93.4215 39.497 93.1292 39.4646 92.8256 39.4539C92.8369 39.6801 92.8594 39.8956 92.8706 40.1219C93.1517 39.9064 93.4328 39.7124 93.7139 39.5185V39.5077Z" fill="black"/>
  <path d="M82.7745 68.4693C80.391 66.239 78.075 64.1056 75.8152 62.0477C75.7253 65.0107 75.669 68.1137 75.6241 71.3029C77.0407 71.2922 78.4236 71.2706 79.7952 71.2599C80.7733 70.344 81.7514 69.4067 82.7745 68.4585V68.4693Z" fill="black"/>
  <path d="M59.8166 71.0121C59.7266 71.0983 59.6367 71.1953 59.5468 71.2815C59.5468 71.4108 59.5468 71.5401 59.5355 71.6586C59.8278 71.6478 60.1202 71.6263 60.4012 71.6263C60.2101 71.4108 60.0077 71.2168 59.8166 71.0013V71.0121Z" fill="black"/>
  <path d="M73.8477 85.019C72.8921 84.0816 71.9027 83.1443 70.9245 82.1746C68.5973 84.4695 66.3487 86.6783 64.2126 88.8439C67.3269 88.9193 70.5423 88.984 73.8814 89.0163C73.8477 87.6695 73.8365 86.3335 73.8365 85.019H73.8477Z" fill="black"/>
  <path d="M74.1625 60.5502C73.5441 59.9899 72.9483 59.4512 72.3524 58.9125C70.4186 60.6687 68.4848 62.4573 66.5735 64.2997C64.6735 66.1206 62.796 67.9738 60.9746 69.827C61.5368 70.4088 62.1102 70.9906 62.6723 71.5616C66.4724 71.4431 70.2499 71.3785 73.9264 71.3246C73.9826 67.8014 74.0613 64.2027 74.1737 60.5502H74.1625Z" fill="black"/>
  <path d="M122.091 42.1689C121.652 40.7036 121.18 39.2598 120.674 37.8484C119.437 38.8181 118.122 39.8417 116.784 40.9191C118.594 41.2962 120.348 41.7272 122.091 42.1797V42.1689Z" fill="black"/>
  <path d="M64.2238 73.1455C66.3599 75.3112 68.6085 77.5307 70.9358 79.8149C71.9139 78.856 72.892 77.8971 73.8589 76.9597C73.8589 75.6452 73.8702 74.3199 73.9039 72.9731C70.5535 73.0055 67.338 73.0701 64.235 73.1455H64.2238Z" fill="black"/>
  <path d="M72.1275 80.9891C72.7009 81.5494 73.2631 82.1097 73.8365 82.6592V79.3191C73.2631 79.8794 72.7009 80.4396 72.1275 80.9891Z" fill="black"/>
  <path d="M75.6016 33.6358C73.9377 34.7132 72.2849 35.8445 70.6435 37.0082C71.1269 37.3314 71.6216 37.6546 72.105 37.9994C73.1619 37.924 74.2187 37.8486 75.2755 37.7839C75.3767 36.3832 75.4779 35.0041 75.6016 33.625V33.6358Z" fill="black"/>
  <path d="M69.7215 80.9892C67.1694 78.4788 64.5611 75.8606 61.9527 73.1993C61.132 73.2317 60.2888 73.2532 59.4793 73.2748C59.4006 75.8175 59.3669 78.4034 59.3669 80.9892C59.3669 83.5751 59.4118 86.161 59.4793 88.7037C60.2888 88.736 61.132 88.7576 61.9527 88.7899C64.5611 86.1286 67.1694 83.5212 69.7215 80.9892Z" fill="black"/>
  <path d="M74.2749 39.5076C74.556 39.7016 74.837 39.9063 75.1294 40.111C75.1406 39.8847 75.1631 39.6693 75.1744 39.443C74.8596 39.4538 74.5672 39.4861 74.2749 39.4969V39.5076Z" fill="black"/>
  <path d="M75.5904 75.2895C75.9839 74.8909 76.3998 74.4814 76.8158 74.1043C77.2093 73.7272 77.6253 73.3286 78.0413 72.9299C77.2318 72.9299 76.4223 72.9407 75.6128 72.9407C75.6128 73.7165 75.6016 74.4922 75.6016 75.2895H75.5904Z" fill="black"/>
  <path d="M74.3423 122.481C74.6234 122.492 74.9045 122.525 75.1856 122.535C75.1743 122.32 75.1519 122.126 75.1406 121.91C74.8708 122.094 74.6122 122.288 74.3423 122.481Z" fill="black"/>
  <path d="M58.6023 103.443C58.3662 100.739 58.1639 98.0019 58.0177 95.1898C55.5218 97.7757 53.1946 100.254 51.0022 102.613C53.4756 102.926 56.0165 103.206 58.6136 103.443H58.6023Z" fill="black"/>
  <path d="M78.8958 19.2413C80.5822 19.1551 82.2911 19.112 84 19.112C85.7089 19.112 87.4178 19.1551 89.1155 19.2413C88.8681 17.4419 88.6096 15.7611 88.351 14.2419C86.9006 13.7894 85.4503 13.3692 84 12.9813C82.5497 13.3584 81.0993 13.7894 79.649 14.2419C79.4017 15.7719 79.1319 17.4527 78.8958 19.2413Z" fill="black"/>
  <path d="M24.2554 50.0667C24.5702 49.1078 24.9075 48.1489 25.2448 47.2115C24.1092 44.7657 23.1986 42.4815 22.4903 40.3267C20.7251 41.7273 19.0275 43.1819 17.431 44.7118C17.4422 47.4701 17.7233 50.3684 18.2854 53.3745C20.163 52.2108 22.1642 51.1118 24.2554 50.0667Z" fill="black"/>
  <path d="M17.4872 65.0324C17.9482 64.1166 18.4203 63.2223 18.915 62.3172C18.2067 60.1731 17.6221 58.0613 17.1499 56.0034C14.5416 57.7381 12.2143 59.6021 10.1569 61.5415C10.1569 63.6856 10.2693 65.8512 10.4941 68.0277C12.5741 66.9825 14.9239 65.9805 17.4872 65.0324Z" fill="black"/>
  <path d="M27.7407 48.4182C27.9656 48.3212 28.2017 48.2242 28.4378 48.1165C30.0792 46.0478 31.8106 44.033 33.632 42.072C32.6426 40.833 31.6982 39.6263 30.81 38.4734C29.4384 41.2424 28.2017 44.13 27.0886 47.1252C27.291 47.5454 27.5159 47.9872 27.7407 48.4289V48.4182Z" fill="black"/>
  <path d="M30.9337 34.5406C30.7313 34.6699 30.5402 34.7992 30.3153 34.9178C30.4053 35.0363 30.4727 35.1332 30.5514 35.2302C30.6639 35.0039 30.8212 34.7669 30.9337 34.5406Z" fill="black"/>
  <path d="M142.283 110.867C142.384 110.544 142.485 110.199 142.598 109.875C142.283 110.296 141.968 110.737 141.642 111.179C141.867 111.061 142.081 110.964 142.294 110.867H142.283Z" fill="black"/>
  <path d="M75.0057 42.0935C73.8702 41.2747 72.7347 40.4666 71.5991 39.6801C69.834 39.8201 68.0913 39.9817 66.3487 40.1757C65.022 41.1885 63.6841 42.2444 62.3687 43.311C62.1439 44.6686 61.9302 46.037 61.7166 47.4376C64.9771 50.2067 68.26 53.0726 71.5429 55.971C72.0938 55.9602 72.6335 55.9386 73.1844 55.9171C73.5779 55.5615 73.9713 55.206 74.3649 54.872C74.5447 50.573 74.7471 46.2955 75.017 42.0935H75.0057Z" fill="black"/>
  <path d="M15.6996 117.956C14.2268 116.512 12.8439 115.026 11.5397 113.506C12.6752 118.484 14.5079 123.193 17.0375 127.502C16.1718 124.593 15.7221 121.382 15.6996 117.967V117.956Z" fill="black"/>
  <path d="M10.2018 59.3434C12.1806 57.5872 14.3954 55.9279 16.8239 54.3226C16.273 51.5643 15.9357 48.8815 15.8232 46.3064C14.0356 48.1165 12.383 50.0128 10.8877 51.9737C10.5054 54.3764 10.2805 56.833 10.2131 59.3327L10.2018 59.3434Z" fill="black"/>
  <path d="M18.7689 99.8552C18.8026 99.769 18.8476 99.6828 18.8701 99.5858C18.3866 98.7239 17.937 97.8296 17.4872 96.9569C14.9239 96.0087 12.5741 95.0067 10.4941 93.9508C10.2693 96.138 10.1569 98.3037 10.1569 100.448C12.1918 102.366 14.4966 104.208 17.0824 105.943C17.5434 103.96 18.1055 101.935 18.7689 99.8552Z" fill="black"/>
  <path d="M11.551 48.4721C12.8776 46.9314 14.2943 45.423 15.8008 43.9469C15.8345 40.4883 16.2842 37.2344 17.1837 34.2391C14.5753 38.6351 12.6977 43.4082 11.551 48.4721Z" fill="black"/>
  <path d="M150.524 42.3952C150.277 37.6437 149.152 33.3663 147.117 29.7137C147.365 32.2673 147.005 35.2841 146.061 38.6565C147.623 39.8525 149.119 41.1023 150.524 42.3845V42.3952Z" fill="black"/>
  <path d="M151.187 54.3226C153.605 55.9172 155.819 57.5872 157.809 59.3219C157.719 56.833 157.495 54.3764 157.112 51.9737C155.606 50.0128 153.953 48.1165 152.177 46.3064C152.064 48.8815 151.738 51.5643 151.187 54.3226Z" fill="black"/>
  <path d="M142.778 47.2869C143.115 48.2027 143.441 49.1293 143.733 50.0667C145.824 51.1118 147.837 52.2108 149.703 53.3744C150.265 50.3683 150.546 47.47 150.558 44.7118C148.984 43.2034 147.297 41.7488 145.532 40.3481C144.824 42.5353 143.913 44.8411 142.778 47.2869Z" fill="black"/>
  <path d="M152.222 43.9469C153.728 45.4122 155.122 46.9314 156.449 48.4721C155.302 43.4082 153.425 38.6351 150.828 34.2391C151.727 37.2344 152.188 40.4883 152.21 43.9469H152.222Z" fill="black"/>
  <path d="M145.274 98.713C142.159 99.6612 138.809 100.534 135.211 101.331C137.167 104.326 138.899 107.214 140.383 109.994C141.653 108.281 142.856 106.557 143.992 104.822C144.475 102.818 144.891 100.782 145.262 98.713H145.274Z" fill="black"/>
  <path d="M150.445 65.0108C153.042 65.9589 155.403 66.9717 157.495 68.0384C157.731 65.862 157.832 63.6963 157.843 61.5522C155.797 59.6128 153.447 57.7488 150.839 56.0142C150.367 58.0936 149.759 60.227 149.051 62.3926C149.535 63.2653 149.996 64.1488 150.434 65.0216L150.445 65.0108Z" fill="black"/>
  <path d="M139.54 48.1057C139.776 48.2027 140.001 48.2997 140.214 48.4074C140.439 47.9441 140.653 47.4701 140.878 47.0175C139.787 44.0653 138.55 41.2101 137.19 38.4626C136.336 39.5832 135.402 40.7684 134.357 42.0613C136.189 44.0222 137.91 46.0478 139.529 48.095L139.54 48.1057Z" fill="black"/>
  <path d="M87.3503 12.1731C87.5752 12.2485 87.8113 12.3024 88.025 12.367C87.9912 12.2485 87.98 12.1407 87.9462 12.0222C87.7551 12.0653 87.5528 12.1192 87.3392 12.1623L87.3503 12.1731Z" fill="black"/>
  <path d="M25.2448 114.778C24.9075 113.83 24.5702 112.881 24.2554 111.922C22.1642 110.877 20.1743 109.778 18.2967 108.615C17.7345 111.642 17.4423 114.541 17.4085 117.267C19.005 118.797 20.7027 120.262 22.4791 121.663C23.1874 119.518 24.098 117.213 25.2335 114.778H25.2448Z" fill="black"/>
  <path d="M78.2886 23.9388C80.1662 24.8115 82.0437 25.7489 83.9325 26.7509C85.8551 25.7166 87.7776 24.7684 89.7001 23.8634C89.5877 22.8506 89.464 21.8593 89.3291 20.9112C87.564 20.825 85.7876 20.7711 83.9887 20.7711C82.1899 20.7711 80.4247 20.825 78.6484 20.9112C78.5359 21.8701 78.401 22.8937 78.2773 23.9388H78.2886Z" fill="black"/>
  <path d="M137.696 34.9288C137.471 34.7995 137.269 34.6594 137.066 34.5302C137.201 34.7672 137.336 34.9935 137.46 35.2413C137.538 35.1443 137.617 35.0258 137.696 34.9288Z" fill="black"/>
  <path d="M79.9863 12.3778C80.2111 12.3024 80.4248 12.2485 80.6496 12.1839C80.4473 12.1408 80.2561 12.0869 80.0425 12.0438C80.0088 12.1623 79.9975 12.2701 79.9863 12.3886V12.3778Z" fill="black"/>
  <path d="M17.476 42.3952C18.9038 41.0915 20.4104 39.8524 21.9731 38.6349C21.0175 35.2194 20.6577 32.2134 20.9163 29.6921C18.8476 33.3339 17.7346 37.6329 17.476 42.3952Z" fill="black"/>
  <path d="M159.563 101.03C159.552 103.077 159.428 105.102 159.226 107.096C162.149 102.743 164.353 98.0883 165.747 93.229C164.184 95.9442 162.104 98.5623 159.563 101.03Z" fill="black"/>
  <path d="M167.478 80.9892C167.478 79.998 164.184 78.7373 157.629 77.4983C157.36 78.6727 157.067 79.8256 156.741 80.9892C157.067 82.1636 157.36 83.3165 157.629 84.4801C164.195 83.2518 167.478 81.9912 167.478 80.9892Z" fill="black"/>
  <path d="M157.989 86.1071C158.36 87.831 158.664 89.5441 158.9 91.2357C163.15 88.8223 165.96 86.1933 167.006 83.4351C165.084 84.4371 161.958 85.3314 157.978 86.1071H157.989Z" fill="black"/>
  <path d="M152.289 117.956C152.255 121.372 151.817 124.572 150.962 127.492C153.481 123.182 155.313 118.473 156.449 113.517C155.156 115.026 153.762 116.512 152.289 117.956Z" fill="black"/>
  <path d="M157.112 110.016C157.495 107.613 157.719 105.156 157.809 102.657C155.831 104.391 153.65 106.051 151.244 107.613C151.806 110.393 152.132 113.054 152.244 115.607C153.998 113.808 155.64 111.944 157.112 110.016Z" fill="black"/>
  <path d="M157.854 100.448C157.843 98.3037 157.742 96.138 157.506 93.9508C155.415 95.0282 153.054 96.0303 150.457 96.9892C150.029 97.8404 149.591 98.6808 149.119 99.532C149.164 99.6505 149.209 99.7582 149.231 99.8552C149.906 101.935 150.468 103.971 150.918 105.943C153.515 104.208 155.831 102.366 157.866 100.448H157.854Z" fill="black"/>
  <path d="M159.383 115.478C159.766 114.702 160.137 113.905 160.485 113.118C160.71 112.623 160.946 112.149 161.16 111.653C161.385 111.136 161.587 110.608 161.789 110.08C162.115 109.304 162.419 108.507 162.723 107.721C162.812 107.483 162.902 107.236 162.97 106.999C163.824 104.628 164.544 102.236 165.151 99.8229C163.487 103.605 161.328 107.246 158.731 110.673C158.023 114.853 156.876 118.883 155.246 122.697C156.618 120.564 157.888 118.355 159.035 116.092C159.136 115.877 159.26 115.683 159.361 115.467L159.383 115.478Z" fill="black"/>
  <path d="M5.26625 107.71C5.55857 108.496 5.88456 109.294 6.19936 110.069C6.42422 110.597 6.62661 111.114 6.85147 111.642C7.05384 112.138 7.28997 112.612 7.51483 113.108C7.88584 113.894 8.23437 114.692 8.63911 115.467C8.7403 115.683 8.84145 115.877 8.95388 116.092C10.0894 118.312 11.3149 120.477 12.6528 122.568C11.0563 118.797 9.89831 114.799 9.20126 110.597C6.63788 107.182 4.50171 103.572 2.84901 99.8121C3.45613 102.226 4.18691 104.618 5.03013 106.988C5.12007 107.225 5.1875 107.473 5.27744 107.71H5.26625Z" fill="black"/>
  <path d="M17.4647 119.583C17.7121 124.399 18.8813 128.666 20.9163 132.286C20.669 129.754 21.0175 126.759 21.9731 123.354C20.3991 122.137 18.9038 120.876 17.4647 119.583Z" fill="black"/>
  <path d="M162.734 54.2687C162.441 53.4929 162.127 52.6956 161.801 51.9198C161.598 51.3919 161.385 50.8747 161.171 50.3468C160.946 49.8512 160.71 49.3663 160.496 48.8815C160.148 48.0949 159.777 47.2976 159.395 46.5219C159.293 46.3064 159.17 46.1124 159.069 45.8969C157.922 43.6343 156.651 41.4363 155.28 39.2922C156.899 43.0956 158.057 47.1252 158.765 51.3165C161.362 54.7535 163.51 58.3845 165.185 62.1663C164.578 59.7528 163.858 57.3501 163.004 54.9906C162.925 54.7535 162.846 54.5057 162.756 54.2579L162.734 54.2687Z" fill="black"/>
  <path d="M159.125 93.1104C159.327 95.0067 159.473 96.903 159.518 98.7778C162.846 95.2438 165.23 91.4727 166.466 87.4969C164.757 89.4794 162.273 91.3542 159.125 93.1104Z" fill="black"/>
  <path d="M8.93137 45.8969C8.83018 46.1124 8.72903 46.3064 8.6166 46.5218C8.2231 47.2976 7.86333 48.0949 7.49232 48.8814C7.26746 49.3771 7.03133 49.8511 6.82896 50.3468C6.6041 50.8639 6.40178 51.3919 6.17692 51.9198C5.86212 52.6956 5.5473 53.4929 5.24374 54.2686C5.1538 54.5057 5.08631 54.7643 4.99636 55.0013C4.15315 57.3609 3.42236 59.7636 2.81525 62.1771C4.46795 58.4168 6.60412 54.8181 9.16749 51.3919C9.86455 47.1899 11.0226 43.1818 12.6191 39.4215C11.2812 41.5117 10.0557 43.6774 8.92018 45.8969H8.93137Z" fill="black"/>
  <path d="M88.025 149.557C87.7551 149.644 87.4965 149.708 87.2154 149.795C87.4628 149.848 87.7214 149.892 87.9575 149.935C87.9912 149.805 88.0137 149.676 88.0362 149.557H88.025Z" fill="black"/>
  <path d="M89.7001 138.126C87.7776 137.221 85.8551 136.262 83.9325 135.228C82.0437 136.24 80.1549 137.167 78.2886 138.04C78.401 139.085 78.536 140.108 78.6596 141.078C80.4248 141.164 82.2011 141.218 84 141.218C85.7989 141.218 87.564 141.164 89.3404 141.078C89.4753 140.13 89.5877 139.139 89.7114 138.126H89.7001Z" fill="black"/>
  <path d="M80.7846 149.805C80.5147 149.719 80.2336 149.654 79.975 149.568C79.9863 149.698 80.02 149.827 80.0537 149.945C80.3011 149.902 80.5372 149.859 80.7958 149.805H80.7846Z" fill="black"/>
  <path d="M28.4265 113.873C28.1904 113.776 27.9543 113.679 27.7295 113.56C27.5046 114.002 27.291 114.454 27.0774 114.875C28.1792 117.859 29.4271 120.736 30.7987 123.527C31.6869 122.363 32.6313 121.167 33.6207 119.928C31.8106 117.967 30.068 115.941 28.4265 113.883V113.873Z" fill="black"/>
  <path d="M30.3153 127.071C30.5402 127.201 30.7313 127.33 30.9337 127.448C30.8212 127.211 30.6639 126.985 30.5514 126.759C30.4727 126.856 30.4053 126.953 30.3153 127.071Z" fill="black"/>
  <path d="M150.58 117.267C150.569 114.541 150.254 111.642 149.692 108.615C147.814 109.778 145.824 110.877 143.733 111.922C143.441 112.86 143.115 113.786 142.778 114.702C143.913 117.137 144.824 119.454 145.532 121.63C147.297 120.24 148.984 118.775 150.58 117.267Z" fill="black"/>
  <path d="M150.535 119.583C149.107 120.887 147.612 122.126 146.049 123.333C146.994 126.716 147.342 129.711 147.106 132.265C149.13 128.655 150.277 124.389 150.524 119.583H150.535Z" fill="black"/>
  <path d="M140.203 113.593C140.001 113.69 139.776 113.787 139.551 113.894C137.909 115.941 136.189 117.945 134.379 119.928C135.38 121.167 136.313 122.374 137.201 123.527C138.562 120.79 139.798 117.935 140.889 114.972C140.664 114.508 140.45 114.056 140.214 113.582L140.203 113.593Z" fill="black"/>
  <path d="M89.1155 142.748C87.4178 142.824 85.7201 142.877 84 142.877C82.2798 142.877 80.5822 142.824 78.8958 142.748C79.1319 144.547 79.3792 146.207 79.649 147.737C81.0993 148.2 82.5497 148.631 84 149.008C85.4503 148.631 86.9006 148.189 88.351 147.737C88.6208 146.207 88.8681 144.547 89.1155 142.748Z" fill="black"/>
  <path d="M137.673 127.071C137.595 126.953 137.527 126.856 137.437 126.759C137.325 126.985 137.19 127.211 137.055 127.448L137.673 127.071Z" fill="black"/>
  <path d="M16.7564 107.613C14.3505 106.04 12.1693 104.391 10.2131 102.657C10.2918 105.156 10.5054 107.613 10.8877 110.016C12.3605 111.955 14.0019 113.819 15.7558 115.607C15.8682 113.054 16.2168 110.393 16.7564 107.613Z" fill="black"/>
  <path d="M105.193 121.156C105.08 121.253 104.945 121.35 104.822 121.458C104.923 121.447 105.047 121.426 105.148 121.415C105.159 121.329 105.182 121.242 105.193 121.156Z" fill="black"/>
  <path d="M106.283 114.551C103.023 111.782 99.74 108.916 96.4571 105.997C95.9287 106.029 95.3778 106.04 94.8494 106.072C94.4334 106.428 94.0399 106.762 93.6351 107.117C93.4777 111.384 93.2529 115.65 93.0055 119.82C94.1748 120.671 95.3328 121.49 96.502 122.298C98.2447 122.169 99.9536 121.997 101.663 121.813C102.989 120.801 104.316 119.734 105.631 118.657C105.867 117.299 106.07 115.931 106.283 114.541V114.551Z" fill="black"/>
  <path d="M103.967 127.19C104.26 125.865 104.552 124.507 104.822 123.106C104.001 123.214 103.169 123.3 102.326 123.408C101.663 123.915 100.999 124.378 100.336 124.873C101.561 125.682 102.764 126.447 103.967 127.19Z" fill="black"/>
  <path d="M138.337 49.3232C135.931 48.2888 133.412 47.3191 130.77 46.4141C129.354 48.1056 127.847 49.8511 126.273 51.6397C126.802 54.0962 127.263 56.6174 127.656 59.1817C129.59 59.5157 131.445 59.8713 133.277 60.2592C135.537 56.8221 137.505 53.5144 139.18 50.379C138.91 50.0235 138.618 49.6679 138.337 49.3232Z" fill="black"/>
  <path d="M99.0542 123.731C98.9418 123.742 98.8068 123.764 98.6719 123.774C98.7281 123.817 98.7844 123.86 98.8518 123.904C98.9305 123.85 98.998 123.785 99.0542 123.731Z" fill="black"/>
  <path d="M145.791 95.4484C144.846 93.0565 143.79 90.6538 142.609 88.2404C140.338 88.4774 137.988 88.6821 135.571 88.876C134.121 90.9771 132.592 93.0781 130.973 95.1683C132.075 96.709 133.143 98.239 134.154 99.7367C138.281 98.8316 142.114 97.8404 145.611 96.7521C145.69 96.3104 145.723 95.8902 145.791 95.4484Z" fill="black"/>
  <path d="M132.209 100.125C131.422 98.9825 130.635 97.8297 129.803 96.666C129.286 97.3017 128.769 97.9374 128.252 98.5623C128.151 99.3704 128.061 100.157 127.937 100.954C129.387 100.696 130.815 100.416 132.198 100.135L132.209 100.125Z" fill="black"/>
  <path d="M76.8945 140.981C76.8046 140.27 76.7146 139.548 76.6247 138.805C75.1968 139.451 73.769 140.044 72.3524 140.615C73.8589 140.766 75.3767 140.895 76.8945 140.981Z" fill="black"/>
  <path d="M146.735 61.7139C146.836 62.231 146.926 62.759 147.027 63.2869C147.106 63.0607 147.174 62.8452 147.252 62.6405C147.095 62.328 146.915 62.0371 146.735 61.7246V61.7139Z" fill="black"/>
  <path d="M146.836 80.9892C146.836 79.276 146.78 77.5737 146.701 75.8713C145.678 75.7636 144.633 75.6343 143.542 75.5157C142.632 77.3151 141.653 79.1252 140.597 80.9461C141.676 82.7777 142.677 84.6201 143.61 86.4626C144.666 86.344 145.701 86.2363 146.701 86.107C146.78 84.4262 146.836 82.7131 146.836 80.9892Z" fill="black"/>
  <path d="M147.016 98.7454C146.926 99.2518 146.836 99.7797 146.735 100.286C146.915 99.9844 147.072 99.6935 147.241 99.3918C147.162 99.1656 147.095 98.9501 147.016 98.7454Z" fill="black"/>
  <path d="M146.6 87.8202C145.881 87.8956 145.15 87.9711 144.408 88.0573C145.06 89.3717 145.656 90.697 146.24 92.0115C146.387 90.6216 146.51 89.2317 146.611 87.8094L146.6 87.8202Z" fill="black"/>
  <path d="M69.3281 123.774C69.1819 123.764 69.0357 123.742 68.8896 123.731C68.9795 123.785 69.047 123.85 69.137 123.914C69.1932 123.861 69.2719 123.817 69.3281 123.774Z" fill="black"/>
  <path d="M75.0057 119.831C74.7359 115.661 74.5335 111.395 74.3536 107.128C73.9601 106.783 73.5554 106.438 73.1619 106.083C72.6334 106.05 72.105 106.04 71.5654 106.007C68.2038 109.003 64.9096 111.869 61.7166 114.584C61.919 115.974 62.1439 117.342 62.3687 118.678C63.6841 119.755 65.0108 120.801 66.3487 121.813C68.0464 121.997 69.7553 122.169 71.4979 122.298C72.6672 121.49 73.8252 120.671 75.0057 119.82V119.831Z" fill="black"/>
  <path d="M92.1286 102.118C89.3516 99.6181 86.6421 97.1292 84 94.6726C81.268 97.2261 78.5585 99.7366 75.8714 102.15C75.9052 102.937 75.9164 103.734 75.9501 104.499C78.6035 104.585 81.2905 104.628 84 104.628C86.7095 104.628 89.3965 104.585 92.0499 104.499C92.0836 103.723 92.1061 102.926 92.1286 102.128V102.118Z" fill="black"/>
  <path d="M63.1782 123.106C63.4592 124.507 63.7403 125.865 64.0326 127.19C65.2244 126.457 66.4161 125.692 67.6304 124.906C66.967 124.41 66.3037 123.904 65.6516 123.408C64.8309 123.311 63.9989 123.225 63.1782 123.106Z" fill="black"/>
  <path d="M63.1332 121.447C63.0321 121.361 62.9308 121.275 62.8184 121.189C62.8184 121.264 62.8297 121.329 62.8522 121.404C62.9534 121.415 63.0433 121.436 63.1332 121.447Z" fill="black"/>
  <path d="M76.1075 108.647C76.2536 112.17 76.4223 115.489 76.6134 118.635C78.6034 117.18 80.5934 115.65 82.6059 114.067C80.4473 112.332 78.2886 110.522 76.1187 108.636L76.1075 108.647Z" fill="black"/>
  <path d="M91.3753 138.891C91.2854 139.602 91.1954 140.292 91.1055 140.981C92.5783 140.895 94.0398 140.787 95.5014 140.626C94.1298 140.076 92.7469 139.494 91.3753 138.891Z" fill="black"/>
  <path d="M91.1167 122.611C91.1617 122.007 91.2067 121.372 91.2516 120.747C88.8682 118.991 86.4397 117.148 84 115.209C81.5715 117.148 79.1318 119.001 76.7483 120.747C76.7933 121.372 76.8383 121.986 76.8832 122.611C79.233 122.708 81.6053 122.762 84.0112 122.762C86.4172 122.762 88.7894 122.708 91.1392 122.611H91.1167Z" fill="black"/>
  <path d="M85.3941 114.077C87.3953 115.661 89.4078 117.191 91.3866 118.646C91.5777 115.489 91.7576 112.17 91.9038 108.658C89.7227 110.533 87.5527 112.343 85.4054 114.088L85.3941 114.077Z" fill="black"/>
  <path d="M91.9937 106.158C89.3741 106.234 86.6983 106.277 84 106.277C81.3017 106.277 78.6484 106.234 76.0063 106.158C76.0063 106.212 76.0176 106.255 76.0176 106.309C78.6709 108.626 81.3467 110.845 84 112.968C86.6533 110.845 89.3291 108.626 91.9937 106.309V106.158Z" fill="black"/>
  <path d="M138.64 80.9892C137.392 78.8882 136.043 76.7764 134.627 74.6862C132.873 74.5461 131.04 74.4168 129.151 74.2767C129.252 76.4963 129.309 78.7266 129.309 80.9892C129.309 83.2518 129.252 85.4929 129.151 87.7016C131.029 87.5724 132.85 87.4431 134.593 87.303C136.043 85.202 137.381 83.0794 138.629 80.9892H138.64Z" fill="black"/>
  <path d="M147.792 65.9698C147.713 66.1852 147.635 66.4115 147.545 66.6162C147.916 69.1698 148.174 71.7556 148.343 74.3846C149.962 74.5785 151.513 74.794 152.986 75.0203C151.929 72.165 150.704 69.3098 149.287 66.4654C148.804 66.293 148.309 66.1314 147.803 65.959L147.792 65.9698Z" fill="black"/>
  <path d="M140.394 52.0061C138.91 54.7859 137.179 57.6734 135.222 60.6687C138.82 61.4553 142.171 62.3388 145.285 63.2869C144.914 61.2182 144.498 59.1926 144.014 57.1778C142.879 55.4431 141.665 53.7192 140.405 52.0061H140.394Z" fill="black"/>
  <path d="M128.589 95.4809C128.645 95.4055 128.702 95.33 128.769 95.2546C128.724 95.1792 128.679 95.1253 128.634 95.0607C128.623 95.2007 128.6 95.3408 128.589 95.4809Z" fill="black"/>
  <path d="M141.631 50.8209C141.957 51.2627 142.283 51.6829 142.587 52.1246C142.485 51.8014 142.384 51.4566 142.272 51.1334C142.069 51.0149 141.845 50.9179 141.62 50.8209H141.631Z" fill="black"/>
  <path d="M153.65 85.1696C154.122 83.7689 154.56 82.3898 154.965 80.9891C154.571 79.5992 154.122 78.2201 153.65 76.8194C152.053 76.5824 150.299 76.3346 148.444 76.0975C148.523 77.7245 148.579 79.3514 148.579 80.9891C148.579 82.6268 148.523 84.2645 148.444 85.8915C150.299 85.6544 152.053 85.4066 153.65 85.1696Z" fill="black"/>
  <path d="M102.495 22.2794C103.484 25.2747 104.417 28.507 105.238 31.9764C107.88 30.3818 110.477 28.9272 113.007 27.6235C113.445 27.3973 113.872 27.2033 114.3 26.9878C112.489 25.7596 110.668 24.5851 108.824 23.4969C106.744 23.0336 104.619 22.635 102.483 22.2794H102.495Z" fill="black"/>
  <path d="M25.717 51.1226C25.627 51.4351 25.5258 51.726 25.4359 52.0384C25.7282 51.629 26.0431 51.2304 26.3354 50.8209L25.717 51.1226Z" fill="black"/>
  <path d="M27.6395 110.037C27.8756 109.627 28.078 109.218 28.3141 108.809C29.6745 106.374 31.1923 103.874 32.845 101.342C29.236 100.555 25.8744 99.6719 22.7489 98.713C23.0974 100.782 23.5359 102.807 24.0193 104.822C25.1549 106.578 26.3803 108.313 27.6508 110.037H27.6395Z" fill="black"/>
  <path d="M104.113 141.11C103.585 141.207 103.057 141.294 102.517 141.391C102.742 141.466 102.955 141.531 103.18 141.606C103.495 141.434 103.799 141.283 104.113 141.11Z" fill="black"/>
  <path d="M22.7376 63.2869C25.8631 62.328 29.2247 61.4445 32.8337 60.658C31.181 58.1152 29.6633 55.6263 28.3029 53.1913C28.0668 52.7819 27.8644 52.3724 27.6283 51.963C26.3578 53.6761 25.1324 55.4108 23.9968 57.1778C23.5134 59.1711 23.0974 61.2182 22.7264 63.2869H22.7376Z" fill="black"/>
  <path d="M26.3354 111.168C26.0431 110.759 25.7282 110.36 25.4359 109.951C25.5258 110.253 25.627 110.554 25.717 110.867L26.3354 111.168Z" fill="black"/>
  <path d="M102.517 20.5987C103.045 20.6849 103.574 20.7819 104.113 20.8681C103.799 20.7172 103.495 20.5556 103.18 20.4048C102.955 20.4587 102.742 20.5341 102.517 20.5987Z" fill="black"/>
  <path d="M105.215 130.088C104.395 133.525 103.473 136.725 102.483 139.71C104.642 139.354 106.756 138.956 108.836 138.492C110.646 137.415 112.444 136.24 114.232 135.044C111.343 133.601 108.318 131.952 105.204 130.088H105.215Z" fill="black"/>
  <path d="M144.419 52.2108C144.846 53.6331 145.24 55.0768 145.611 56.5314C146.42 57.8135 147.207 59.1065 147.961 60.3994C148.523 58.5785 148.984 56.8007 149.366 55.0445C147.803 54.0533 146.151 53.1051 144.43 52.2001L144.419 52.2108Z" fill="black"/>
  <path d="M139.596 82.627C138.697 84.1246 137.752 85.6222 136.763 87.1199C138.505 86.969 140.181 86.8074 141.777 86.6566C141.08 85.3098 140.36 83.9738 139.596 82.627Z" fill="black"/>
  <path d="M127.948 61.0458C128.05 61.8215 128.151 62.6188 128.263 63.4054C128.78 64.0411 129.309 64.666 129.826 65.3017C130.647 64.138 131.445 62.9959 132.209 61.8539C130.827 61.5737 129.387 61.3044 127.948 61.0458Z" fill="black"/>
  <path d="M128.589 66.5084C128.6 66.6485 128.623 66.8101 128.634 66.9502C128.679 66.8748 128.724 66.8209 128.769 66.7562C128.713 66.6808 128.657 66.6054 128.589 66.5192V66.5084Z" fill="black"/>
  <path d="M136.808 74.8694C137.786 76.3347 138.708 77.8216 139.607 79.3084C140.372 77.9832 141.08 76.6472 141.777 75.3327C140.181 75.1818 138.528 75.0202 136.808 74.8694Z" fill="black"/>
  <path d="M146.218 69.8484C145.633 71.206 145.026 72.5635 144.363 73.9319C145.116 74.0073 145.869 74.0827 146.6 74.1689C146.499 72.7144 146.375 71.2706 146.218 69.8484Z" fill="black"/>
  <path d="M129.084 72.6498C130.557 72.736 131.985 72.8437 133.424 72.9515C132.322 71.3676 131.153 69.7946 129.938 68.243C129.59 68.7063 129.23 69.1912 128.881 69.676C128.96 70.6673 129.028 71.6585 129.084 72.6606V72.6498Z" fill="black"/>
  <path d="M134.154 62.2634C133.154 63.7611 132.086 65.2695 130.984 66.8102C132.603 68.8897 134.154 70.9907 135.616 73.1133C138.022 73.3072 140.349 73.5119 142.587 73.7382C143.801 71.3247 144.858 68.9328 145.802 66.5624C145.723 66.1207 145.69 65.6897 145.611 65.2479C142.114 64.1597 138.281 63.1685 134.154 62.2634Z" fill="black"/>
  <path d="M129.084 89.3394C129.028 90.3414 128.949 91.3326 128.881 92.3239C129.23 92.8087 129.59 93.272 129.938 93.7569C131.13 92.1838 132.299 90.6215 133.424 89.0485C131.996 89.1454 130.545 89.2639 129.084 89.3501V89.3394Z" fill="black"/>
  <path d="M69.1594 105.889C66.2363 105.749 63.3806 105.566 60.5811 105.329C60.8284 107.818 61.1095 110.231 61.4356 112.612C63.954 110.468 66.5398 108.227 69.1594 105.9V105.889Z" fill="black"/>
  <path d="M39.8043 21.5469C41.0523 20.06 42.3564 18.627 43.7168 17.2694C38.7812 17.5064 34.3403 18.5839 30.5289 20.5341C33.171 20.3078 36.2628 20.6526 39.8043 21.5469Z" fill="black"/>
  <path d="M35.2172 16.957C38.3427 16.095 41.7381 15.6533 45.347 15.6317C46.8648 14.188 48.4388 12.8519 50.069 11.5806C44.7849 12.6796 39.793 14.4789 35.2172 16.9678V16.957Z" fill="black"/>
  <path d="M31.6757 36.7602C32.6201 38.0209 33.6657 39.3569 34.8125 40.8006C35.9592 39.5939 37.1285 38.4087 38.3315 37.2343C39.5457 36.0707 40.7824 34.9609 42.0304 33.8512C40.5463 32.7629 39.1297 31.7609 37.8143 30.8451C36.4539 31.5131 35.116 32.1919 33.8006 32.9138C33.0585 34.1528 32.3503 35.4458 31.6645 36.7602H31.6757Z" fill="black"/>
  <path d="M35.4533 27.2465C36.4764 25.7812 37.522 24.359 38.6126 22.9906C36.2291 22.4088 34.0367 22.1179 32.1367 22.1179C30.2366 22.1179 28.5502 22.4412 27.1786 23.0553C29.2698 23.6479 32.1029 25.1348 35.4533 27.2573V27.2465Z" fill="black"/>
  <path d="M40.6138 12.604C44.5488 11.074 48.7199 9.97505 53.1159 9.30703C56.7024 6.81814 60.4912 4.771 64.4262 3.17639C55.9154 5.15888 47.8991 8.34811 40.6138 12.604Z" fill="black"/>
  <path d="M35.5208 30.1556C35.7569 30.0263 35.993 29.897 36.2403 29.7785C36.1279 29.7031 36.0154 29.6384 35.9142 29.563C35.7793 29.7569 35.6332 29.9616 35.5208 30.1556Z" fill="black"/>
  <path d="M47.798 15.6641C50.4962 15.7611 53.2957 16.0843 56.1739 16.6123C57.8266 14.285 59.5805 12.1624 61.413 10.2554C58.8047 10.3416 56.2414 10.5678 53.7117 10.9342C51.6655 12.3564 49.698 13.9618 47.798 15.6641Z" fill="black"/>
  <path d="M97.5364 10.5677C98.6269 12.5717 99.6726 14.8128 100.662 17.2478C101.573 17.6896 102.495 18.1098 103.405 18.5731C103.495 18.5407 103.596 18.4976 103.686 18.4761C105.856 17.8404 107.981 17.3017 110.038 16.8599C108.228 14.3818 106.306 12.1731 104.282 10.2229C102.056 10.2229 99.7963 10.3522 97.5252 10.5569L97.5364 10.5677Z" fill="black"/>
  <path d="M89.6776 11.7099C89.7563 12.1193 89.8238 12.561 89.9025 12.9812C92.702 13.8971 95.4789 14.9637 98.2334 16.1597C97.3902 14.1988 96.5245 12.3887 95.6139 10.7617C93.6576 10.9988 91.6564 11.3112 89.6889 11.7099H89.6776Z" fill="black"/>
  <path d="M69.7777 16.1597C72.521 14.9637 75.298 13.8971 78.0975 12.9812C78.1762 12.561 78.2437 12.1193 78.3336 11.7099C76.3436 11.3112 74.3536 10.9988 72.3861 10.7617C71.4754 12.3887 70.5985 14.1988 69.7777 16.1597Z" fill="black"/>
  <path d="M106.587 10.2554C108.397 12.1517 110.14 14.2419 111.781 16.5476C114.671 16.0305 117.459 15.6964 120.112 15.5887C118.235 13.9079 116.312 12.3564 114.288 10.9342C111.781 10.5678 109.218 10.3416 106.587 10.2554Z" fill="black"/>
  <path d="M57.9053 16.9462C60.0751 17.388 62.2675 17.959 64.5161 18.627C65.4492 18.1422 66.3937 17.7112 67.3381 17.2695C68.3274 14.8129 69.373 12.5718 70.4636 10.5678C68.1925 10.3523 65.9327 10.2338 63.7066 10.2338C61.6717 12.1947 59.7379 14.4358 57.9165 16.9462H57.9053Z" fill="black"/>
  <path d="M36.2628 132.221C36.0154 132.103 35.7794 131.963 35.5208 131.844C35.6557 132.06 35.7906 132.254 35.9367 132.448C36.0379 132.372 36.1616 132.308 36.2628 132.221Z" fill="black"/>
  <path d="M38.6013 138.988C37.5107 137.63 36.4652 136.219 35.4646 134.764C31.5408 137.275 28.9774 138.514 27.2685 139.031C30.0455 140.205 33.9018 140.13 38.6126 138.988H38.6013Z" fill="black"/>
  <path d="M39.8155 140.464C37.0161 141.186 34.4527 141.552 32.1816 141.552C31.6195 141.552 31.0911 141.52 30.5627 141.477C34.3628 143.427 38.7924 144.483 43.7055 144.731C42.3789 143.373 41.086 141.951 39.8268 140.464H39.8155Z" fill="black"/>
  <path d="M42.0416 128.149C40.8049 127.05 39.5682 125.919 38.3427 124.744C37.1285 123.58 35.9705 122.395 34.8237 121.199C33.6769 122.643 32.6314 123.979 31.687 125.24C32.384 126.554 33.0923 127.836 33.8231 129.086C35.1385 129.808 36.4877 130.487 37.8593 131.155C39.1297 130.282 40.5238 129.28 42.0529 128.16L42.0416 128.149Z" fill="black"/>
  <path d="M29.6745 36.9543C29.4046 36.5772 29.1236 36.2108 28.865 35.8337C27.1673 36.9112 25.5371 38.0425 23.9519 39.2277C24.514 41.0055 25.2223 42.9125 26.088 44.9273C27.1673 42.1691 28.3703 39.5186 29.6745 36.9543Z" fill="black"/>
  <path d="M45.3583 146.368C41.7043 146.336 38.2978 145.883 35.1722 145.011C39.7593 147.51 44.7736 149.321 50.069 150.42C48.4501 149.148 46.8648 147.801 45.3695 146.368H45.3583Z" fill="black"/>
  <path d="M12.0457 77.2073C12.0906 77.4228 12.1356 77.6168 12.1806 77.8107C12.2593 77.5845 12.3267 77.369 12.4054 77.1427C12.293 77.1535 12.1693 77.1858 12.0569 77.1966L12.0457 77.2073Z" fill="black"/>
  <path d="M13.0238 75.3328C14.0019 72.65 15.1037 69.9887 16.3517 67.3597C14.3055 68.1678 12.4167 68.9975 10.719 69.8594C10.9664 71.7557 11.2811 73.652 11.6971 75.5591C12.1244 75.4836 12.5853 75.419 13.0238 75.3328Z" fill="black"/>
  <path d="M16.3404 94.6296C15.1037 92.0007 13.9907 89.3286 13.0238 86.6566C12.5853 86.5704 12.1244 86.5057 11.6971 86.4303C11.2811 88.3374 10.9776 90.2337 10.719 92.13C12.4167 92.9919 14.3055 93.8215 16.3404 94.6296Z" fill="black"/>
  <path d="M28.8538 126.155C29.1236 125.789 29.4046 125.423 29.6632 125.035C28.3703 122.481 27.156 119.82 26.0767 117.062C25.211 119.066 24.5028 120.973 23.9406 122.762C25.5146 123.936 27.1561 125.067 28.8538 126.155Z" fill="black"/>
  <path d="M12.0457 84.7925C12.1581 84.8033 12.2818 84.8356 12.3942 84.8464C12.3155 84.6201 12.248 84.3938 12.1693 84.1783C12.1243 84.3723 12.0794 84.577 12.0344 84.7817L12.0457 84.7925Z" fill="black"/>
  <path d="M139.18 111.61C137.516 108.475 135.537 105.167 133.277 101.73C131.445 102.107 129.59 102.463 127.656 102.786C127.263 105.372 126.802 107.882 126.273 110.36C127.836 112.127 129.354 113.884 130.77 115.564C133.412 114.67 135.931 113.7 138.337 112.655C138.618 112.3 138.91 111.966 139.18 111.61Z" fill="black"/>
  <path d="M132.108 119.874C131.49 119.098 130.826 118.301 130.152 117.482C128.162 118.129 126.116 118.754 124.013 119.335C123.406 121.361 122.765 123.311 122.08 125.218C122.923 125.886 123.766 126.5 124.576 127.115C125.868 125.973 127.173 124.809 128.443 123.591C129.714 122.374 130.939 121.135 132.119 119.874H132.108Z" fill="black"/>
  <path d="M136.212 115.273C134.795 115.834 133.367 116.372 131.872 116.9C132.356 117.461 132.817 118.032 133.289 118.592C134.289 117.504 135.267 116.383 136.212 115.273Z" fill="black"/>
  <path d="M147.938 101.59C147.196 102.894 146.42 104.176 145.611 105.447C145.24 106.902 144.846 108.346 144.419 109.768C146.139 108.863 147.792 107.915 149.355 106.923C148.973 105.189 148.5 103.4 147.938 101.579V101.59Z" fill="black"/>
  <path d="M128.376 131.963C127.161 131.112 125.913 130.207 124.62 129.259C122.552 130.993 120.461 132.674 118.324 134.247C118.223 134.441 118.133 134.657 118.032 134.851C118.516 135.077 118.988 135.271 119.482 135.486C122.563 134.441 125.531 133.256 128.387 131.952L128.376 131.963Z" fill="black"/>
  <path d="M147.556 95.2546C147.657 95.5132 147.758 95.761 147.848 96.0196C148.354 95.8472 148.804 95.6856 149.276 95.5132C150.693 92.6903 151.918 89.8351 152.975 86.9799C151.502 87.2061 149.951 87.4216 148.332 87.6156C148.174 90.2014 147.904 92.7442 147.545 95.2654L147.556 95.2546Z" fill="black"/>
  <path d="M53.0259 152.628C48.6412 151.949 44.4476 150.85 40.4564 149.288C47.7868 153.587 55.8479 156.819 64.4149 158.813C60.435 157.196 56.6124 155.128 53.0147 152.617L53.0259 152.628Z" fill="black"/>
  <path d="M115.503 136.219C115.064 136.521 114.637 136.844 114.176 137.124C114.513 137.038 114.839 136.941 115.176 136.844C115.278 136.65 115.401 136.434 115.503 136.219Z" fill="black"/>
  <path d="M103.54 129.054C101.977 128.095 100.403 127.071 98.7956 126.005C96.6145 127.556 94.4109 129.011 92.2298 130.401C92.0274 132.717 91.8025 134.98 91.5664 137.156C94.0848 138.298 96.592 139.322 99.0879 140.227C99.5264 140.152 99.9873 140.108 100.426 140.044C101.561 136.704 102.607 133.019 103.54 129.065V129.054Z" fill="black"/>
  <path d="M111.073 143.621C112.107 142.123 113.097 140.539 114.041 138.891C112.534 139.3 111.028 139.699 109.488 140.055C108.172 140.83 106.845 141.584 105.508 142.285C107.408 142.813 109.263 143.254 111.084 143.632L111.073 143.621Z" fill="black"/>
  <path d="M131.13 133.827C130.748 133.568 130.366 133.321 129.961 133.051C127.308 134.29 124.564 135.422 121.731 136.456C123.777 137.275 125.756 137.986 127.6 138.525C128.825 137.016 130.006 135.454 131.119 133.838L131.13 133.827Z" fill="black"/>
  <path d="M126.408 139.979C124.137 139.3 121.72 138.406 119.179 137.339C118.223 137.652 117.245 137.964 116.278 138.255C115.176 140.249 114.041 142.156 112.827 143.955C115.986 144.504 119.01 144.785 121.855 144.806C123.429 143.298 124.947 141.682 126.408 139.99V139.979Z" fill="black"/>
  <path d="M139.157 35.8337C138.888 36.2001 138.607 36.5664 138.337 36.9543C139.63 39.497 140.81 42.126 141.889 44.8411C142.744 42.8802 143.486 40.9839 144.026 39.2169C142.463 38.0425 140.844 36.9112 139.157 35.8445V35.8337Z" fill="black"/>
  <path d="M125.958 33.8619C127.206 34.9609 128.454 36.0814 129.657 37.2451C130.883 38.4195 132.041 39.6047 133.199 40.8114C134.379 39.3461 135.414 37.9993 136.336 36.7818C135.638 35.4673 134.93 34.1851 134.177 32.9245C132.861 32.2026 131.535 31.5238 130.163 30.8558C128.848 31.7717 127.454 32.7737 125.947 33.8619H125.958Z" fill="black"/>
  <path d="M131.748 29.7785C131.996 29.9078 132.232 30.0371 132.49 30.1556C132.356 29.9616 132.209 29.7569 132.074 29.563C131.973 29.6384 131.872 29.7031 131.748 29.7785Z" fill="black"/>
  <path d="M99.6725 142.199C99.4027 142.102 99.1441 142.005 98.8743 141.919C96.2547 142.253 93.5902 142.5 90.8919 142.651C90.667 144.203 90.4534 145.69 90.2285 147.101C93.2079 146.088 96.1873 144.914 99.1329 143.556C99.3128 143.115 99.4814 142.662 99.6613 142.199H99.6725Z" fill="black"/>
  <path d="M122.563 15.5455C126.161 15.5779 129.511 16.0088 132.558 16.8493C128.05 14.4142 123.136 12.6688 117.931 11.5806C119.527 12.8196 121.068 14.1341 122.563 15.5563V15.5455Z" fill="black"/>
  <path d="M128.196 21.5469C131.737 20.6418 134.851 20.3078 137.471 20.5341C133.727 18.5947 129.286 17.4957 124.306 17.2694C125.644 18.627 126.948 20.0492 128.196 21.5469Z" fill="black"/>
  <path d="M129.387 22.9907C130.478 24.359 131.524 25.792 132.547 27.2466C135.897 25.124 138.73 23.6587 140.821 23.0446C139.45 22.4412 137.808 22.1072 135.863 22.1072C133.918 22.1072 131.782 22.4089 129.387 22.9799V22.9907Z" fill="black"/>
  <path d="M155.954 84.7925C155.898 84.5554 155.864 84.3292 155.808 84.1029C155.718 84.3615 155.651 84.6093 155.572 84.8679C155.707 84.8356 155.819 84.814 155.954 84.7925Z" fill="black"/>
  <path d="M155.954 77.2073C155.819 77.1965 155.707 77.1642 155.572 77.1318C155.651 77.3904 155.718 77.6382 155.808 77.8968C155.864 77.6706 155.898 77.4335 155.954 77.2073Z" fill="black"/>
  <path d="M151.603 67.3382C152.851 69.9994 153.964 72.6715 154.92 75.3328C155.392 75.4082 155.864 75.4728 156.303 75.559C156.719 73.652 157.045 71.7557 157.281 69.8594C155.583 68.9867 153.672 68.1462 151.603 67.3274V67.3382Z" fill="black"/>
  <path d="M114.873 9.29626C119.269 9.97504 123.44 11.074 127.364 12.604C120.09 8.34811 112.073 5.13733 103.563 3.17639C107.52 4.771 111.286 6.81814 114.873 9.29626Z" fill="black"/>
  <path d="M156.303 86.4303C155.864 86.5058 155.392 86.5812 154.92 86.6566C153.964 89.3286 152.851 92.0007 151.603 94.6404C153.672 93.8323 155.583 93.0027 157.281 92.1192C157.045 90.2229 156.719 88.3374 156.303 86.4196V86.4303Z" fill="black"/>
  <path d="M10.3255 84.4802C10.5954 83.3166 10.8989 82.1529 11.225 80.9893C10.8989 79.8256 10.5954 78.6728 10.3255 77.5092C3.79344 78.7374 0.521729 79.998 0.521729 80.9893C0.521729 81.9805 3.79344 83.2519 10.3255 84.4802Z" fill="black"/>
  <path d="M8.84148 93.089C5.70472 91.3327 3.24252 89.4688 1.52236 87.5078C2.75908 91.4512 5.12009 95.2223 8.4255 98.724C8.47047 96.86 8.61662 94.9745 8.84148 93.089Z" fill="black"/>
  <path d="M8.39173 100.987C5.88457 98.53 3.81586 95.9226 2.25311 93.229C3.63598 98.0452 5.81709 102.667 8.71775 107.009C8.51538 105.027 8.39173 103.023 8.39173 100.987Z" fill="black"/>
  <path d="M9.96576 75.893C9.63972 74.3415 9.34739 72.7792 9.11129 71.2277C9.10005 71.0768 9.07752 70.926 9.06628 70.7751C4.83896 73.1778 2.02824 75.8068 0.982655 78.565C2.90518 77.563 5.99703 76.6687 9.96576 75.893Z" fill="black"/>
  <path d="M27.9093 127.513C26.3803 126.544 24.885 125.531 23.4572 124.486C22.2654 129.119 22.2654 132.879 23.5021 135.497C24.1205 133.493 25.672 130.746 27.9093 127.513Z" fill="black"/>
  <path d="M9.06628 91.225C9.07752 91.0741 9.10005 90.9233 9.11129 90.7724C9.34739 89.2209 9.63972 87.6586 9.96576 86.1071C5.99703 85.3314 2.90518 84.4371 0.982655 83.4351C2.02824 86.1718 4.82772 88.8007 9.06628 91.225Z" fill="black"/>
  <path d="M63.1445 8.53139C65.7079 6.12869 68.4062 4.1462 71.2394 2.64856C66.1913 3.97381 61.3681 6.0856 56.8597 8.84385C58.9059 8.66068 61.0083 8.54216 63.1445 8.53139Z" fill="black"/>
  <path d="M24.9637 24.4344C24.2441 25.124 25.6271 28.2486 29.3597 33.5603C30.4053 32.9247 31.4733 32.2997 32.5639 31.7071C33.1935 30.662 33.8455 29.6277 34.5089 28.6257C29.9218 25.6735 26.8863 24.2405 25.5708 24.2405C25.2898 24.2405 25.0986 24.2944 24.9637 24.4236V24.4344Z" fill="black"/>
  <path d="M8.84148 68.9111C8.61662 67.0041 8.47047 65.1185 8.4255 63.2761C5.12009 66.7778 2.75908 70.5596 1.52236 74.4923C3.23128 72.5313 5.69348 70.6458 8.84148 68.9111Z" fill="black"/>
  <path d="M2.25311 68.7603C3.81586 66.056 5.88457 63.4593 8.39173 61.0028C8.39173 58.9664 8.50414 56.9624 8.71775 54.9799C5.82834 59.3219 3.64722 63.9442 2.25311 68.7603Z" fill="black"/>
  <path d="M27.9093 34.476C25.672 31.2437 24.1205 28.4962 23.5021 26.4922C22.2654 29.1104 22.2654 32.8491 23.4572 37.5036C24.885 36.4477 26.3803 35.4349 27.9093 34.476Z" fill="black"/>
  <path d="M96.637 152.995C94.8044 156.022 92.8482 158.382 90.7795 160.02C94.9393 158.834 98.8856 156.561 102.562 153.361C100.606 153.307 98.627 153.189 96.637 152.995Z" fill="black"/>
  <path d="M104.912 153.404C102.326 155.839 99.6051 157.832 96.7606 159.341C101.831 157.994 106.699 155.882 111.241 153.081C109.162 153.275 107.048 153.393 104.912 153.404Z" fill="black"/>
  <path d="M71.3855 8.97294C73.1956 5.96688 75.1406 3.60728 77.2093 1.98035C73.0832 3.16553 69.1594 5.41738 65.5055 8.58506C67.4392 8.63893 69.3955 8.76823 71.3855 8.98371V8.97294Z" fill="black"/>
  <path d="M94.7032 152.758C92.9156 152.531 91.1392 152.251 89.3404 151.896C88.5309 155.71 87.5977 158.705 86.5409 160.558C89.4303 159.545 92.1848 156.83 94.7145 152.758H94.7032Z" fill="black"/>
  <path d="M144.52 124.507C143.092 125.552 141.62 126.554 140.091 127.513C142.328 130.767 143.879 133.504 144.487 135.529C145.78 132.857 145.735 129.086 144.52 124.507Z" fill="black"/>
  <path d="M143.025 137.566C143.767 136.855 142.362 133.752 138.64 128.44C137.583 129.076 136.515 129.7 135.425 130.293C134.795 131.338 134.154 132.372 133.48 133.375C139.023 136.941 142.283 138.277 143.025 137.577V137.566Z" fill="black"/>
  <path d="M81.4591 160.558C80.4023 158.705 79.4691 155.71 78.6596 151.896C76.8608 152.251 75.0731 152.531 73.2968 152.758C75.8376 156.83 78.5809 159.545 81.4703 160.558H81.4591Z" fill="black"/>
  <path d="M84 161C85.0456 161 86.361 157.865 87.6427 151.572C86.4284 151.314 85.2142 151.023 84 150.71C82.7858 151.023 81.5715 151.314 80.3573 151.572C81.639 157.865 82.9656 161 84 161Z" fill="black"/>
  <path d="M63.0883 153.404C60.9521 153.393 58.8385 153.275 56.7586 153.081C61.3119 155.882 66.1688 157.994 71.2394 159.341C68.3949 157.832 65.6629 155.839 63.0883 153.404Z" fill="black"/>
  <path d="M71.363 152.995C69.373 153.189 67.3943 153.307 65.438 153.361C69.1257 156.55 73.072 158.834 77.2206 160.02C75.1519 158.382 73.1956 156.022 71.363 152.995Z" fill="black"/>
  <path d="M34.5089 133.374C33.8455 132.362 33.1935 131.327 32.5639 130.282C31.4733 129.69 30.4053 129.065 29.3597 128.429C25.6271 133.741 24.2441 136.855 24.9637 137.555C24.9974 137.566 26.3016 138.611 34.5089 133.374Z" fill="black"/>
  <path d="M120.101 146.422C117.447 146.304 114.659 145.981 111.781 145.453C110.14 147.758 108.419 149.849 106.609 151.723C109.218 151.637 111.781 151.443 114.288 151.055C116.289 149.644 118.246 148.092 120.101 146.422Z" fill="black"/>
  <path d="M135.818 141.552C133.547 141.552 130.984 141.186 128.184 140.464C126.936 141.962 125.621 143.384 124.272 144.763C129.286 144.526 133.738 143.416 137.505 141.487C136.976 141.531 136.414 141.563 135.818 141.563V141.552Z" fill="black"/>
  <path d="M122.563 146.455C121.079 147.866 119.527 149.18 117.931 150.43C123.148 149.342 128.072 147.575 132.603 145.129C129.534 145.98 126.172 146.433 122.563 146.455Z" fill="black"/>
  <path d="M132.547 134.753C131.524 136.208 130.5 137.641 129.41 138.999C134.188 140.173 138.146 140.216 140.911 138.966C138.798 138.384 135.942 136.898 132.547 134.753Z" fill="black"/>
  <path d="M136.324 125.24C135.38 123.979 134.334 122.643 133.188 121.199C132.052 122.406 130.871 123.591 129.669 124.744C128.454 125.919 127.218 127.039 125.981 128.138C127.465 129.226 128.87 130.239 130.186 131.133C131.546 130.487 132.884 129.808 134.199 129.086C134.941 127.847 135.661 126.554 136.336 125.24H136.324Z" fill="black"/>
  <path d="M132.49 131.834C132.243 131.963 132.007 132.092 131.748 132.211C131.861 132.286 131.973 132.351 132.074 132.426C132.209 132.232 132.356 132.028 132.49 131.834Z" fill="black"/>
  <path d="M114.963 152.628C111.365 155.128 107.543 157.207 103.563 158.823C112.13 156.83 120.213 153.598 127.521 149.299C123.541 150.85 119.336 151.96 114.952 152.639L114.963 152.628Z" fill="black"/>
  <path d="M70.4749 151.443C69.3731 149.418 68.3049 147.166 67.3155 144.677C66.3824 144.257 65.4718 143.804 64.5611 143.33C62.3238 144.009 60.0976 144.601 57.9053 145.054C59.7379 147.554 61.6604 149.806 63.6954 151.766C65.9215 151.756 68.1813 151.648 70.4636 151.443H70.4749Z" fill="black"/>
  <path d="M78.3336 150.301C78.2437 149.859 78.1762 149.407 78.0862 148.954C75.298 148.039 72.521 146.972 69.7553 145.776C70.5985 147.758 71.4754 149.59 72.3973 151.217C74.3536 150.991 76.3549 150.678 78.3449 150.301H78.3336Z" fill="black"/>
  <path d="M110.038 145.108C107.97 144.666 105.845 144.149 103.686 143.491C103.574 143.459 103.45 143.416 103.338 143.373C102.45 143.815 101.573 144.246 100.696 144.655C99.695 147.144 98.6495 149.407 97.5252 151.421C99.8075 151.637 102.067 151.734 104.293 151.745C106.317 149.794 108.228 147.575 110.05 145.086L110.038 145.108Z" fill="black"/>
  <path d="M98.2447 145.776C95.4902 146.983 92.702 148.039 89.9138 148.954C89.8351 149.407 89.7563 149.859 89.6664 150.301C91.6564 150.678 93.6464 150.991 95.6139 151.217C96.5246 149.59 97.4127 147.758 98.2559 145.776H98.2447Z" fill="black"/>
  <path d="M56.1739 145.366C53.2845 145.884 50.485 146.196 47.7867 146.314C49.6867 148.028 51.6655 149.622 53.7117 151.066C56.2189 151.432 58.7823 151.648 61.3906 151.734C59.558 149.827 57.8266 147.704 56.1739 145.377V145.366Z" fill="black"/>
  <path d="M142.429 24.2512C141.114 24.2512 138.089 25.6842 133.491 28.6364C134.166 29.6384 134.806 30.6728 135.436 31.7179C136.527 32.3105 137.606 32.9354 138.652 33.5819C144.127 25.7058 143.048 24.4559 143.036 24.4344C142.901 24.3051 142.71 24.2512 142.429 24.2512Z" fill="black"/>
  <path d="M73.3305 9.17771C73.4767 9.18848 73.6453 9.21003 73.7914 9.23158C75.4329 9.44707 77.0519 9.72721 78.6709 10.0397C79.4804 6.24707 80.4135 3.27333 81.4591 1.43091C78.5809 2.43293 75.8377 5.13731 73.3305 9.17771Z" fill="black"/>
  <path d="M96.6257 8.97297C98.6044 8.75748 100.561 8.63897 102.495 8.57432C98.8406 5.40664 94.9168 3.16556 90.7906 1.9696C92.8593 3.59654 94.8044 5.95614 96.6257 8.9622V8.97297Z" fill="black"/>
  <path d="M104.855 8.53139C106.992 8.54216 109.083 8.66068 111.14 8.84385C106.632 6.07482 101.809 3.98459 96.7606 2.64856C99.5938 4.1462 102.292 6.12869 104.855 8.53139Z" fill="black"/>
  <path d="M86.5296 1.44165C87.5865 3.28407 88.5084 6.25781 89.3178 10.0504C90.9368 9.73795 92.5783 9.45781 94.1973 9.24232C94.3547 9.21 94.5121 9.19923 94.6695 9.18845C92.1511 5.14805 89.4078 2.46522 86.5296 1.44165Z" fill="black"/>
  <path d="M84 1C82.9657 1 81.6503 4.13535 80.3686 10.3845C81.5828 10.6539 82.7858 10.934 84 11.2465C85.2142 10.934 86.4172 10.6539 87.6427 10.3845C86.361 4.13535 85.0343 1 84 1Z" fill="black"/>
  <path d="M140.113 34.4761C141.631 35.4566 143.104 36.437 144.52 37.4822C145.712 32.9892 145.768 29.2828 144.565 26.6323C144.014 28.27 142.733 30.7266 140.113 34.4761Z" fill="black"/>
  <path d="M159.563 60.9597C162.104 63.4378 164.184 66.0452 165.747 68.7603C164.364 63.9011 162.149 59.2465 159.226 54.8937C159.428 56.8869 159.552 58.9018 159.563 60.9597Z" fill="black"/>
  <path d="M144.014 122.783C143.464 121.016 142.733 119.12 141.878 117.159C140.799 119.874 139.618 122.514 138.326 125.046C138.595 125.423 138.888 125.8 139.135 126.166C140.833 125.089 142.452 123.958 144.014 122.794V122.783Z" fill="black"/>
  <path d="M159.125 68.8788C162.284 70.635 164.757 72.5097 166.466 74.4922C165.23 70.5165 162.857 66.7347 159.518 63.2114C159.473 65.0862 159.327 66.9825 159.125 68.8788Z" fill="black"/>
  <path d="M57.5567 73.3392C55.1395 75.882 52.8123 78.4463 50.5862 80.9891C52.8123 83.5426 55.1395 86.1069 57.5567 88.6497H57.7367C57.6805 86.1392 57.6355 83.5857 57.6355 80.9891C57.6355 78.3924 57.6805 75.8604 57.7367 73.3392H57.5567Z" fill="black"/>
  <path d="M158.9 70.7427C158.664 72.4558 158.349 74.1582 157.989 75.8821C161.969 76.6578 165.095 77.5521 167.017 78.5541C165.972 75.7959 163.15 73.1561 158.911 70.7427H158.9Z" fill="black"/>
  <path d="M119.381 26.4706C118.92 26.6646 118.471 26.8693 117.998 27.074C118.1 27.3002 118.223 27.5265 118.325 27.742C120.483 29.3258 122.586 30.9743 124.632 32.7305C125.925 31.7716 127.184 30.8773 128.387 30.0262C125.497 28.7117 122.484 27.5157 119.381 26.4598V26.4706Z" fill="black"/>
  <path d="M127.105 92.9703C126.262 91.8714 125.396 90.74 124.508 89.6195C120.168 89.8565 115.716 90.072 111.264 90.2229C110.915 90.6 110.522 90.9879 110.162 91.365C110.151 91.8929 110.128 92.4101 110.106 92.938C113.13 96.0626 116.121 99.2303 119.01 102.333C120.472 102.139 121.911 101.935 123.316 101.708C124.452 100.448 125.542 99.1764 126.61 97.8943C126.802 96.2673 126.959 94.6296 127.116 92.9596L127.105 92.9703Z" fill="black"/>
  <path d="M127.341 89.458C127.139 89.4688 126.914 89.4903 126.712 89.5011C126.903 89.7597 127.094 89.9967 127.296 90.2553C127.308 89.986 127.33 89.7274 127.341 89.4688V89.458Z" fill="black"/>
  <path d="M131.883 45.089C133.356 45.5954 134.807 46.1449 136.223 46.7052C135.279 45.5847 134.289 44.4857 133.289 43.3975C132.85 43.947 132.378 44.518 131.883 45.089Z" fill="black"/>
  <path d="M124.564 34.8855C123.755 35.4781 122.923 36.1138 122.068 36.7602C122.743 38.6781 123.395 40.6283 124.002 42.6538C126.093 43.2357 128.151 43.8606 130.152 44.507C130.849 43.6774 131.49 42.9017 132.108 42.1367C130.916 40.8761 129.702 39.6155 128.421 38.4087C127.15 37.1912 125.868 36.0168 124.553 34.8855H124.564Z" fill="black"/>
  <path d="M127.589 80.9893C127.589 78.6943 127.532 76.4209 127.409 74.1583C126.779 74.1152 126.127 74.0721 125.464 74.0398C123.631 76.3347 121.72 78.6512 119.685 80.9785C121.72 83.3273 123.642 85.6438 125.464 87.928C126.127 87.8849 126.779 87.8526 127.409 87.8095C127.521 85.5469 127.589 83.2735 127.589 80.9677V80.9893Z" fill="black"/>
  <path d="M124.429 110.824C123.305 109.541 122.113 108.205 120.877 106.848C119.314 108.475 117.706 110.102 116.042 111.696C114.378 113.312 112.681 114.832 110.972 116.329C112.399 117.514 113.794 118.657 115.131 119.734C117.695 119.228 120.191 118.646 122.619 118.01C123.283 115.683 123.89 113.28 124.429 110.813V110.824Z" fill="black"/>
  <path d="M126.172 101.256C126.183 101.159 126.206 101.073 126.217 100.976C126.116 101.094 126.026 101.191 125.936 101.299C126.015 101.288 126.082 101.267 126.172 101.256Z" fill="black"/>
  <path d="M121.439 103.788C121.113 103.831 120.787 103.874 120.461 103.917C120.596 104.089 120.742 104.229 120.888 104.402C121.068 104.186 121.236 103.992 121.439 103.798V103.788Z" fill="black"/>
  <path d="M125.88 103.109C125.295 103.206 124.699 103.292 124.092 103.389C123.417 104.133 122.732 104.887 122.046 105.641C123.002 106.697 123.946 107.742 124.879 108.798C125.25 106.934 125.587 105.038 125.88 103.12V103.109Z" fill="black"/>
  <path d="M125.823 112.407C125.43 114.142 124.98 115.844 124.531 117.504C126.06 117.062 127.555 116.609 129.028 116.146C128.027 114.95 126.948 113.7 125.823 112.396V112.407Z" fill="black"/>
  <path d="M116.784 121.081C118.122 122.158 119.437 123.171 120.674 124.152C121.18 122.74 121.652 121.296 122.091 119.831C120.348 120.284 118.594 120.693 116.784 121.092V121.081Z" fill="black"/>
  <path d="M85.7089 27.7206C87.2717 28.5826 88.8344 29.4876 90.3972 30.4358C90.2398 28.7658 90.0711 27.1604 89.8912 25.6196C88.5084 26.2876 87.103 26.988 85.6977 27.7206H85.7089Z" fill="black"/>
  <path d="M121.664 25.5011C124.519 26.5355 127.296 27.6775 129.961 28.9382C130.354 28.6688 130.748 28.3994 131.13 28.1624C129.995 26.5355 128.825 24.9732 127.589 23.454C125.734 23.9927 123.755 24.6715 121.664 25.5011Z" fill="black"/>
  <path d="M78.0975 25.6304C77.9176 27.1388 77.7602 28.7442 77.614 30.3927C79.1431 29.4445 80.6833 28.5718 82.2348 27.7098C80.852 26.9879 79.4804 26.2984 78.1087 25.6304H78.0975Z" fill="black"/>
  <path d="M68.3049 19.8551C68.541 19.9413 68.7659 20.0275 69.002 20.0921C71.6553 19.7473 74.3649 19.4995 77.1081 19.3379C77.3105 17.7864 77.5354 16.2995 77.7715 14.8881C74.7809 15.9009 71.8015 17.0968 68.8446 18.4544C68.6535 18.9069 68.4736 19.3702 68.2937 19.8551H68.3049Z" fill="black"/>
  <path d="M76.4336 24.8653C73.8927 23.7017 71.3855 22.6781 68.9121 21.7731C68.4736 21.8269 68.0127 21.8916 67.5742 21.9562C66.4274 25.3071 65.393 29.0135 64.4486 32.9892C66.0114 33.9482 67.5742 34.9394 69.1706 35.9953C71.3518 34.4222 73.5666 32.9461 75.7927 31.5347C75.9838 29.2397 76.2087 27.0094 76.4448 24.8653H76.4336Z" fill="black"/>
  <path d="M84 28.6471C81.8076 29.8538 79.604 31.1252 77.4229 32.4936C77.2768 34.1744 77.1306 35.9306 76.9957 37.7407C79.3117 37.6437 81.639 37.5683 84 37.5683C86.361 37.5683 88.6882 37.6437 91.0043 37.7407C90.8693 35.9306 90.7344 34.1959 90.5883 32.5259C88.3959 31.1575 86.1811 29.8431 84 28.6579V28.6471Z" fill="black"/>
  <path d="M112.827 18.0451C114.041 19.8229 115.176 21.7515 116.278 23.7448C117.279 24.0465 118.268 24.3697 119.258 24.6929C121.798 23.6047 124.193 22.732 126.442 22.064C124.969 20.3508 123.451 18.7239 121.855 17.2047C119.01 17.2155 115.986 17.5064 112.827 18.0559V18.0451Z" fill="black"/>
  <path d="M115.176 25.1561C114.85 25.0591 114.524 24.9622 114.198 24.876C114.626 25.1561 115.053 25.4578 115.469 25.7379C115.379 25.544 115.278 25.3393 115.176 25.1561Z" fill="black"/>
  <path d="M99.0879 21.7731C96.592 22.6781 94.0848 23.6909 91.5664 24.8438C91.8025 27.0094 92.0274 29.2721 92.2298 31.5886C94.4221 32.9785 96.6257 34.4546 98.8181 36.0168C100.415 34.9717 101.989 33.9697 103.551 33.0108C102.618 29.0243 101.573 25.3179 100.426 21.9778C99.9873 21.9024 99.5264 21.8485 99.0879 21.7946V21.7731Z" fill="black"/>
  <path d="M105.53 19.6938C106.902 20.4264 108.24 21.1807 109.589 21.9672C111.095 22.3012 112.568 22.6891 114.041 23.0985C113.085 21.4285 112.096 19.8662 111.073 18.3685C109.274 18.7241 107.419 19.1766 105.53 19.6938Z" fill="black"/>
  <path d="M90.2398 14.8881C90.4646 16.2995 90.7007 17.7864 90.9031 19.3379C93.6014 19.4888 96.2547 19.7366 98.8855 20.0706C99.1554 19.9844 99.414 19.8874 99.6838 19.7904C99.5039 19.3379 99.3352 18.8854 99.1666 18.4436C96.1985 17.0861 93.2191 15.9009 90.2398 14.8773V14.8881Z" fill="black"/>
  <path d="M47.5394 103.917C47.2133 103.874 46.8761 103.831 46.55 103.788C46.7411 103.982 46.921 104.186 47.1122 104.391C47.2471 104.219 47.3932 104.079 47.5394 103.906V103.917Z" fill="black"/>
  <path d="M42.0754 101.299C41.9742 101.181 41.8842 101.084 41.7831 100.976C41.7943 101.073 41.828 101.159 41.8393 101.256C41.918 101.267 41.9854 101.288 42.0754 101.299Z" fill="black"/>
  <path d="M44.6837 101.719C46.1003 101.946 47.5281 102.139 48.9897 102.344C51.8791 99.2304 54.8698 96.0735 57.8941 92.9489C57.8829 92.4209 57.8491 91.9038 57.8378 91.3758L56.736 90.2337C52.2726 90.0829 47.7867 89.8674 43.4245 89.6304C42.5588 90.7186 41.7156 91.8068 40.9061 92.8842C41.041 94.5758 41.2209 96.2674 41.412 97.9159C42.4688 99.198 43.5706 100.469 44.7062 101.73L44.6837 101.719Z" fill="black"/>
  <path d="M43.9191 103.389C43.312 103.292 42.7049 103.206 42.1203 103.109C42.4126 105.027 42.7499 106.923 43.1209 108.787C44.0541 107.742 44.9985 106.697 45.9654 105.63C45.2571 104.887 44.5825 104.133 43.9191 103.378V103.389Z" fill="black"/>
  <path d="M43.4695 117.493C43.0085 115.844 42.57 114.142 42.1765 112.418C41.0522 113.7 39.9842 114.95 38.9723 116.146C40.4452 116.609 41.9405 117.062 43.4695 117.493Z" fill="black"/>
  <path d="M44.65 73.9212C46.179 75.839 47.7868 77.7676 49.4619 79.6962C51.3058 77.606 53.1946 75.5158 55.1508 73.4255C51.4632 73.5656 47.9666 73.738 44.65 73.9212Z" fill="black"/>
  <path d="M90.3972 131.532C88.8344 132.491 87.2604 133.396 85.6977 134.269C87.103 135.001 88.4971 135.691 89.9025 136.359C90.0824 134.829 90.2398 133.202 90.4084 131.521L90.3972 131.532Z" fill="black"/>
  <path d="M57.0059 116.34C55.2969 114.842 53.6105 113.302 51.9466 111.707C50.2826 110.113 48.6749 108.486 47.1122 106.859C45.8754 108.216 44.695 109.541 43.5594 110.834C44.1103 113.291 44.7062 115.694 45.3695 118.032C47.798 118.667 50.2939 119.249 52.8572 119.756C54.2176 118.657 55.6005 117.525 57.0059 116.351V116.34Z" fill="black"/>
  <path d="M40.6588 72.5421C40.8836 72.5314 41.1197 72.5098 41.3333 72.499C41.1309 72.2297 40.9173 71.9495 40.715 71.6802C40.7037 71.9603 40.67 72.2404 40.6588 72.5421Z" fill="black"/>
  <path d="M41.3333 89.5011C41.1085 89.4903 40.8724 89.4688 40.6588 89.458C40.67 89.7381 40.7037 90.0183 40.715 90.32C40.9173 90.0506 41.1309 89.7705 41.3333 89.5011Z" fill="black"/>
  <path d="M42.5701 87.9388C44.4027 85.633 46.3139 83.3165 48.3377 80.9893C46.3139 78.6728 44.4027 76.3563 42.5701 74.0505C41.8955 74.0829 41.2321 74.126 40.5801 74.1691C40.4789 76.4317 40.4002 78.7051 40.4002 81C40.4002 83.295 40.4789 85.5792 40.5801 87.8418C41.2321 87.8849 41.8955 87.928 42.5701 87.9603V87.9388Z" fill="black"/>
  <path d="M52.0591 133.892C55.3307 132.297 58.7823 130.39 62.3687 128.224C61.9752 126.49 61.6042 124.69 61.2445 122.837C58.5574 122.46 55.9378 122.018 53.3519 121.512C51.4969 123.02 49.6643 124.464 47.9104 125.822C48.8436 128.354 49.8666 130.767 50.9459 133.084L52.0478 133.892H52.0591Z" fill="black"/>
  <path d="M92.4209 86.6997C92.0049 87.0984 91.6002 87.4862 91.1842 87.8849C90.7907 88.2835 90.3747 88.6606 89.9587 89.0593C90.7794 89.0593 91.5777 89.0485 92.3872 89.027C92.3984 88.262 92.3984 87.4862 92.4209 86.6997Z" fill="black"/>
  <path d="M92.3759 90.6862C90.9706 90.6969 89.5764 90.7185 88.2048 90.7293C87.2154 91.6666 86.2261 92.604 85.2367 93.5306C87.6202 95.7609 89.9362 97.8942 92.196 99.9521C92.2747 96.9892 92.331 93.8862 92.3759 90.6969V90.6862Z" fill="black"/>
  <path d="M95.805 124.001C94.7819 124.076 93.7588 124.151 92.7132 124.216C92.612 125.606 92.5109 126.985 92.3984 128.353C94.0399 127.276 95.6701 126.177 97.3116 125.013C96.8056 124.69 96.3109 124.345 95.805 124.001Z" fill="black"/>
  <path d="M82.7633 93.5091C81.7627 92.5717 80.7733 91.6451 79.7952 90.7293C78.4236 90.7185 77.0407 90.6969 75.6241 90.6862C75.669 93.8754 75.7253 96.9569 75.8152 99.9306C78.0975 97.8404 80.436 95.707 82.7633 93.5198V93.5091Z" fill="black"/>
  <path d="M45.9092 119.831C46.3476 121.296 46.8198 122.74 47.3258 124.151C48.5962 123.16 49.8892 122.147 51.2158 121.081C49.4057 120.682 47.6518 120.273 45.9092 119.82V119.831Z" fill="black"/>
  <path d="M117.043 133.084C118.122 130.767 119.156 128.354 120.078 125.832C118.313 124.442 116.492 123.02 114.637 121.512C112.073 122.018 109.431 122.46 106.744 122.837C106.396 124.69 106.025 126.479 105.643 128.224C109.206 130.39 112.681 132.275 115.952 133.881C116.323 133.622 116.672 133.342 117.043 133.094V133.084Z" fill="black"/>
  <path d="M78.0413 89.0593C77.6253 88.6606 77.2205 88.2728 76.8158 87.8849C76.3998 87.4862 75.9951 87.0984 75.5904 86.6997C75.5904 87.4862 75.6016 88.2728 75.6016 89.027C76.4111 89.0378 77.2206 89.0593 78.03 89.0593H78.0413Z" fill="black"/>
  <path d="M48.2252 131.036C47.6518 129.679 47.0784 128.311 46.5388 126.878C45.9204 127.341 45.3246 127.793 44.7512 128.235C45.898 129.194 47.0559 130.131 48.2139 131.036H48.2252Z" fill="black"/>
  <path d="M123.238 128.235C122.653 127.793 122.057 127.341 121.45 126.888C120.922 128.3 120.359 129.668 119.764 131.026C120.933 130.121 122.08 129.194 123.226 128.224L123.238 128.235Z" fill="black"/>
  <path d="M75.2868 124.205C74.2524 124.151 73.2181 124.065 72.195 123.99C71.6891 124.345 71.1943 124.679 70.6884 125.003C72.3299 126.166 73.9601 127.276 75.6128 128.343C75.5004 126.985 75.388 125.606 75.2868 124.205Z" fill="black"/>
  <path d="M55.1508 88.5636C53.1946 86.4733 51.3058 84.3831 49.4619 82.2928C47.798 84.2322 46.1902 86.1501 44.65 88.0787C47.9666 88.2619 51.4632 88.4343 55.1508 88.5743V88.5636Z" fill="black"/>
  <path d="M23.5809 109.778C23.1649 108.378 22.7714 106.955 22.4116 105.512C21.5909 104.24 20.7926 102.937 20.0393 101.644C19.4884 103.454 19.0162 105.221 18.6565 106.955C20.2192 107.925 21.8607 108.873 23.5809 109.778Z" fill="black"/>
  <path d="M28.775 111.556C29.0561 111.923 29.3597 112.289 29.6632 112.655C32.0692 113.7 34.5876 114.681 37.2297 115.564C38.6575 113.883 40.1641 112.127 41.7268 110.36C41.2097 107.882 40.7374 105.372 40.3439 102.786C38.3989 102.441 36.4989 102.096 34.655 101.708C32.8899 104.38 31.2822 107.009 29.8431 109.563C29.4721 110.231 29.1236 110.877 28.7863 111.545L28.775 111.556Z" fill="black"/>
  <path d="M20.1405 96.0088C20.2305 95.7502 20.3317 95.5024 20.4329 95.2438C20.0843 92.7333 19.8145 90.1798 19.6458 87.5939C18.0269 87.4 16.4754 87.1845 15.0025 86.9583C16.0594 89.8135 17.3073 92.6687 18.7014 95.4916C19.1736 95.664 19.6458 95.8364 20.1293 95.998L20.1405 96.0088Z" fill="black"/>
  <path d="M36.1166 116.9C34.6438 116.372 33.1935 115.844 31.7769 115.273C32.7213 116.394 33.7106 117.504 34.7112 118.592C35.1722 118.021 35.6444 117.461 36.1166 116.9Z" fill="black"/>
  <path d="M43.447 127.104C44.2452 126.511 45.066 125.886 45.9429 125.229C45.2459 123.322 44.605 121.361 44.0091 119.335C41.8955 118.754 39.8493 118.14 37.8593 117.482C37.1847 118.301 36.5214 119.088 35.9031 119.874C37.0836 121.135 38.309 122.374 39.5794 123.591C40.8499 124.809 42.1428 125.962 43.4582 127.115L43.447 127.104Z" fill="black"/>
  <path d="M14.3617 76.8194C13.8782 78.2201 13.4285 79.5992 13.035 80.9891C13.4285 82.3898 13.8782 83.7689 14.3617 85.1696C15.9582 85.4066 17.6896 85.6544 19.5559 85.8915C19.4772 84.2645 19.4435 82.6376 19.4435 80.9891C19.4435 79.3406 19.4884 77.7245 19.5559 76.0975C17.7008 76.3346 15.9582 76.5824 14.3617 76.8194Z" fill="black"/>
  <path d="M39.3996 95.4807C39.3883 95.2975 39.3658 95.1251 39.3546 94.9528C39.2983 95.0282 39.2422 95.1036 39.1747 95.179C39.2534 95.276 39.3209 95.373 39.3996 95.4807Z" fill="black"/>
  <path d="M39.3996 66.5084C39.3209 66.6054 39.2534 66.7024 39.1747 66.8101C39.2309 66.8963 39.2871 66.9825 39.3546 67.0471C39.3658 66.8748 39.3883 66.6916 39.3996 66.5084Z" fill="black"/>
  <path d="M48.5513 135.497C49.0235 135.282 49.4956 135.088 49.9791 134.861C49.8891 134.667 49.7879 134.452 49.6867 134.258C47.5506 132.685 45.4594 131.004 43.3795 129.259C42.0529 130.25 40.7824 131.166 39.6356 131.974C42.4913 133.278 45.4707 134.463 48.5625 135.508L48.5513 135.497Z" fill="black"/>
  <path d="M23.5809 52.2108C21.8607 53.1159 20.208 54.064 18.6452 55.0553C19.0275 56.7899 19.4884 58.5569 20.0281 60.367C20.7926 59.0526 21.5796 57.7489 22.4116 56.4667C22.7601 55.0445 23.1649 53.6115 23.5809 52.2108Z" fill="black"/>
  <path d="M20.4553 66.6162C20.3654 66.4007 20.2979 66.1744 20.208 65.9697C19.6908 66.1421 19.2074 66.3145 18.7239 66.4761C17.3186 69.3206 16.0819 72.1758 15.025 75.031C16.4979 74.8047 18.0494 74.5893 19.6684 74.3953C19.8482 71.7664 20.1068 69.1805 20.4666 66.627L20.4553 66.6162Z" fill="black"/>
  <path d="M35.7119 61.8861C36.4989 63.0282 37.3084 64.2026 38.1291 65.3771C38.6575 64.709 39.2084 64.0626 39.7481 63.4161C39.838 62.6296 39.9392 61.8323 40.0404 61.0565C38.5676 61.3151 37.1172 61.5952 35.7006 61.8861H35.7119Z" fill="black"/>
  <path d="M77.7715 147.112C77.5354 145.69 77.3105 144.203 77.1081 142.64C74.3536 142.49 71.6328 142.231 68.9683 141.875C68.7434 141.962 68.5298 142.026 68.3049 142.113C68.4848 142.597 68.676 143.071 68.8559 143.556C71.8015 144.903 74.7809 146.067 77.7827 147.101L77.7715 147.112Z" fill="black"/>
  <path d="M68.9121 140.216C71.3855 139.311 73.8927 138.277 76.4336 137.124C76.1975 134.98 75.9726 132.739 75.7815 130.455C73.5666 129.054 71.3743 127.567 69.1932 126.016C67.5967 127.071 66.0226 128.095 64.4599 129.054C65.393 133.008 66.4387 136.704 67.5742 140.033C68.0127 140.108 68.4736 140.152 68.9121 140.216Z" fill="black"/>
  <path d="M46.2802 136.456C43.4358 135.443 40.6925 134.29 38.0504 133.062C37.6344 133.331 37.2634 133.59 36.8812 133.838C38.0055 135.454 39.1635 137.016 40.3889 138.514C42.244 137.975 44.2115 137.275 46.2689 136.445L46.2802 136.456Z" fill="black"/>
  <path d="M65.5167 141.391C64.9658 141.304 64.4261 141.207 63.8752 141.11C64.19 141.283 64.4936 141.455 64.8084 141.606C65.0445 141.531 65.2806 141.466 65.5167 141.391Z" fill="black"/>
  <path d="M90.5883 129.463C90.7344 127.804 90.8693 126.058 91.0043 124.259C88.6882 124.356 86.361 124.41 84 124.41C81.639 124.41 79.3117 124.356 76.9957 124.259C77.1306 126.069 77.2768 127.825 77.4229 129.506C79.604 130.864 81.8076 132.146 84 133.353C86.1811 132.146 88.3959 130.853 90.5883 129.463Z" fill="black"/>
  <path d="M82.2236 134.279C80.6721 133.417 79.1431 132.545 77.6028 131.597C77.749 133.245 77.9176 134.829 78.0862 136.359C79.4579 135.691 80.8295 135.001 82.2123 134.279H82.2236Z" fill="black"/>
  <path d="M55.162 143.933C53.9478 142.156 52.8123 140.249 51.7217 138.255C50.7323 137.954 49.7655 137.652 48.7986 137.339C46.2577 138.417 43.8405 139.3 41.5694 139.968C43.031 141.682 44.5488 143.276 46.1228 144.806C48.9785 144.795 52.0253 144.483 55.1508 143.944L55.162 143.933Z" fill="black"/>
  <path d="M62.7735 130.088C59.6592 131.952 56.6574 133.611 53.7455 135.044C55.5331 136.251 57.3319 137.415 59.142 138.492C61.222 138.956 63.3468 139.354 65.4942 139.71C64.5048 136.725 63.5942 133.515 62.7622 130.088H62.7735Z" fill="black"/>
  <path d="M52.4975 136.219C52.6099 136.434 52.7224 136.639 52.8348 136.844C53.1609 136.941 53.4868 137.038 53.8241 137.124C53.3856 136.844 52.9359 136.521 52.4975 136.219Z" fill="black"/>
  <path d="M62.5149 142.285C61.177 141.574 59.8503 140.83 58.5237 140.055C56.9947 139.699 55.4656 139.311 53.9703 138.891C54.9259 140.539 55.9153 142.123 56.9384 143.621C58.771 143.265 60.6373 142.813 62.5261 142.274L62.5149 142.285Z" fill="black"/>
  <path d="M64.8309 20.3939C64.5161 20.5663 64.2013 20.7172 63.8865 20.8788C64.4374 20.7926 64.9771 20.6956 65.528 20.6094C65.2919 20.534 65.067 20.4693 64.8309 20.3939Z" fill="black"/>
  <path d="M50.0016 27.0739C49.5406 26.8585 49.0909 26.6645 48.6299 26.4706C45.5156 27.5157 42.5139 28.7224 39.6244 30.0369C40.8387 30.8881 42.0866 31.7716 43.3683 32.7413C45.4369 30.9851 47.5394 29.3366 49.6756 27.7527C49.788 27.5372 49.9004 27.311 50.0016 27.0847V27.0739Z" fill="black"/>
  <path d="M34.7112 43.3975C33.7106 44.4857 32.7213 45.5847 31.7769 46.716C33.1935 46.1557 34.6325 45.5954 36.1166 45.089C35.6444 44.5288 35.1722 43.947 34.7112 43.3975Z" fill="black"/>
  <path d="M44.0091 42.6646C44.5937 40.639 45.2459 38.6888 45.9429 36.771C45.0885 36.1245 44.2452 35.4888 43.4357 34.8962C42.1428 36.0276 40.8386 37.202 39.5682 38.4195C38.2977 39.637 37.0723 40.876 35.8918 42.1366C36.5102 42.9124 37.1735 43.7097 37.848 44.5286C39.838 43.8605 41.8842 43.2572 43.9979 42.6754L44.0091 42.6646Z" fill="black"/>
  <path d="M40.0516 100.943C39.9504 100.157 39.8493 99.3596 39.7368 98.5515C39.2084 97.905 38.68 97.2478 38.1404 96.6013C37.2972 97.7757 36.4876 98.9501 35.7119 100.103C37.1285 100.405 38.5675 100.663 40.0516 100.933V100.943Z" fill="black"/>
  <path d="M41.7156 51.6181C40.1528 49.8511 38.6463 48.0949 37.2184 46.4141C34.5764 47.3083 32.0579 48.278 29.652 49.3124C29.3596 49.6895 29.0449 50.0666 28.7638 50.4329C29.1011 51.0794 29.4609 51.7474 29.8206 52.4154C31.2485 54.9689 32.8562 57.5979 34.6326 60.27C36.4764 59.8929 38.3765 59.5265 40.3215 59.1817C40.715 56.6067 41.1872 54.0962 41.7043 51.6181H41.7156Z" fill="black"/>
  <path d="M53.7904 24.8652C53.4644 24.9514 53.1384 25.0484 52.8348 25.1454C52.7336 25.3285 52.6324 25.5225 52.52 25.7272C52.936 25.4471 53.3632 25.1454 53.7904 24.8652Z" fill="black"/>
  <path d="M59.1645 23.4969C57.3206 24.5851 55.5105 25.7596 53.6892 26.9878C54.1277 27.2033 54.5437 27.3973 54.9822 27.6235C57.523 28.9272 60.1089 30.3818 62.7509 31.9764C63.5942 28.5178 64.5048 25.2747 65.4942 22.2794C63.3581 22.635 61.2332 23.0336 59.1533 23.4969H59.1645Z" fill="black"/>
  <path d="M46.3364 25.5011C44.2452 24.6715 42.2665 23.9927 40.4114 23.454C39.1859 24.9624 38.0054 26.5355 36.8924 28.1624C37.2634 28.3994 37.6569 28.6688 38.0392 28.9382C40.7037 27.6775 43.4807 26.5355 46.3364 25.5011Z" fill="black"/>
  <path d="M21.2648 61.7139C21.0849 62.0156 20.9275 62.3172 20.7476 62.6189C20.8263 62.8452 20.9051 63.0607 20.9838 63.2869C21.0737 62.759 21.1636 62.2418 21.2648 61.7139Z" fill="black"/>
  <path d="M41.5694 22.0532C43.8068 22.7212 46.2015 23.594 48.7311 24.6822C49.7205 24.359 50.7098 24.0357 51.7217 23.734C52.8123 21.7408 53.9478 19.8337 55.162 18.0559C52.0365 17.5172 49.001 17.2047 46.134 17.194C44.5375 18.7239 43.0198 20.3401 41.5582 22.0532H41.5694Z" fill="black"/>
  <path d="M62.4811 19.6938C60.5923 19.1766 58.7485 18.7241 56.9272 18.3685C55.9041 19.8662 54.926 21.4392 53.9591 23.0985C55.4319 22.6891 56.9047 22.312 58.4112 21.9672C59.7491 21.1807 61.1095 20.4157 62.4811 19.6938Z" fill="black"/>
  <path d="M20.9838 98.7454C20.9051 98.9608 20.8376 99.1871 20.7589 99.3918C20.9163 99.6935 21.0962 99.9844 21.2648 100.286C21.1749 99.7797 21.0737 99.2518 20.9838 98.7454Z" fill="black"/>
  <path d="M32.3952 73.1132C33.8568 70.9906 35.4196 68.8681 37.0385 66.7671C35.948 65.2587 34.9024 63.7395 33.9018 62.2418C29.7532 63.1469 25.8969 64.1489 22.3891 65.2371C22.3329 65.6789 22.2766 66.1098 22.2092 66.5516C23.1423 68.922 24.1992 71.3139 25.4134 73.7273C27.6508 73.5011 30.0005 73.3071 32.4065 73.1024L32.3952 73.1132Z" fill="black"/>
  <path d="M21.3997 74.1797C22.1418 74.0935 22.8838 74.0073 23.6596 73.9426C22.985 72.5743 22.3778 71.2167 21.782 69.8591C21.6246 71.2814 21.5009 72.7251 21.3997 74.1797Z" fill="black"/>
  <path d="M33.9018 99.7259C34.9249 98.2282 35.9705 96.7198 37.061 95.1898C35.4421 93.0996 33.8906 90.9878 32.4402 88.876C30.023 88.6821 27.662 88.4774 25.4022 88.2404C24.2104 90.6538 23.1424 93.0565 22.198 95.4484C22.2542 95.8902 22.3104 96.3104 22.3779 96.7521C25.8856 97.8404 29.7532 98.8424 33.8905 99.7367L33.9018 99.7259Z" fill="black"/>
  <path d="M23.5921 88.0573C22.8501 87.9711 22.1193 87.885 21.3997 87.8203C21.5009 89.2318 21.6246 90.6324 21.7708 92.0223C22.3442 90.7078 22.9513 89.3826 23.6034 88.0681L23.5921 88.0573Z" fill="black"/>
  <path d="M39.1409 69.6115C38.7924 69.1267 38.4439 68.6634 38.0954 68.2001C36.8811 69.7731 35.7119 71.3677 34.5876 72.9516C36.0154 72.8546 37.4657 72.7361 38.9273 72.6499C38.9835 71.6156 39.0622 70.6135 39.1522 69.6115H39.1409Z" fill="black"/>
  <path d="M39.1409 92.3778C39.051 91.3758 38.9836 90.3522 38.9161 89.3394C37.4546 89.2424 36.0154 89.1455 34.5988 89.0377C35.7006 90.6216 36.8811 92.2054 38.1066 93.7677C38.4439 93.3044 38.7812 92.8303 39.1409 92.367V92.3778Z" fill="black"/>
  <path d="M31.1923 74.8694C29.4721 75.0202 27.8194 75.1818 26.2341 75.3327C26.9087 76.6472 27.6395 77.9724 28.3928 79.3084C29.2922 77.8216 30.2254 76.3455 31.1923 74.8694Z" fill="black"/>
  <path d="M31.2485 87.1199C30.2479 85.6222 29.3147 84.1246 28.404 82.627C27.6507 83.9738 26.92 85.3098 26.2229 86.6566C27.8306 86.8074 29.4946 86.969 31.2485 87.1199Z" fill="black"/>
  <path d="M24.3903 86.4626C25.3347 84.6309 26.3241 82.7885 27.4034 80.9461C26.3578 79.1252 25.3684 77.3151 24.4578 75.5157C23.3784 75.6343 22.3216 75.7528 21.321 75.8713C21.2311 77.5629 21.1749 79.276 21.1749 80.9892C21.1749 82.7023 21.2311 84.4262 21.321 86.107C22.3104 86.2363 23.3447 86.344 24.4016 86.4626H24.3903Z" fill="black"/>
  <path d="M38.8374 87.7016C38.7362 85.4929 38.68 83.2626 38.68 80.9892C38.68 78.7158 38.7362 76.4963 38.8374 74.2767C36.9486 74.4168 35.116 74.5461 33.3846 74.6862C31.9568 76.7764 30.6076 78.8882 29.3709 80.9892C30.6076 83.0794 31.968 85.202 33.3959 87.303C35.1385 87.4431 36.9599 87.5724 38.8374 87.7016Z" fill="black"/>
</svg>