<svg width="320" height="320" viewBox="0 0 320 320" fill="currentColor" xmlns="http://www.w3.org/2000/svg">
<g clip-path="url(#clip0_81_21967)">
<path d="M280 155.229C272.637 155.229 266.666 161.209 266.666 168.59V181.954H257.779V155.232C257.779 147.851 251.808 141.871 244.445 141.871C237.085 141.871 231.114 147.851 231.114 155.232V181.96H222.224V146.322C222.224 138.941 216.253 132.961 208.89 132.961C201.53 132.961 195.558 138.941 195.558 146.322V181.96H186.669V79.5206C186.669 72.1396 180.698 66.1598 173.338 66.1598C165.974 66.1598 160.003 72.1396 160.003 79.5206V195.289C159.958 211.638 154.742 235.384 146.669 235.384H146.074C136.49 222.931 130.483 196.511 128.95 177.731C128.915 177.311 128.883 176.894 128.851 176.468C128.285 169.125 121.91 163.723 114.57 164.168C107.242 164.717 101.731 171.1 102.256 178.446C102.291 178.914 102.33 179.456 102.381 180.078C105.885 225.23 108.013 232.867 112.838 246.975C113.805 249.797 114.89 252.958 116.128 257.066C120.33 270.985 129.808 293.823 139.184 312.609C141.44 317.137 146.058 319.997 151.114 319.997H248.89C253.629 319.997 258.019 317.473 260.413 313.369C261.757 311.058 293.338 256.364 293.338 217.57V168.587C293.334 161.206 287.363 155.229 280 155.229Z" fill="white"/>
<path d="M66.6656 53.1196C66.6656 60.5006 60.6944 66.4804 53.3344 66.4804C45.968 66.4804 40 60.5006 40 53.1196C40 45.7386 45.968 39.7587 53.3344 39.7587C60.6944 39.7587 66.6656 45.7386 66.6656 53.1196Z" fill="white"/>
<path d="M66.6656 92.8815C66.6656 100.256 60.6944 106.242 53.3344 106.242C45.968 106.242 40 100.259 40 92.8815C40 85.5005 45.968 79.5206 53.3344 79.5206C60.6944 79.5206 66.6656 85.5037 66.6656 92.8815Z" fill="white"/>
<path d="M26.6656 92.8815C26.6656 100.256 20.6944 106.242 13.3344 106.242C5.96798 106.242 0 100.259 0 92.8815C0 85.5005 5.96798 79.5206 13.3344 79.5206C20.6944 79.5206 26.6656 85.5037 26.6656 92.8815Z" fill="white"/>
<path d="M106.346 13.3576C106.346 20.7386 100.371 26.7185 93.0112 26.7185C85.648 26.7185 79.6768 20.7386 79.6768 13.3576C79.6768 5.98302 85.648 -0.00323486 93.0112 -0.00323486C100.371 -2.85148e-05 106.346 5.98302 106.346 13.3576Z" fill="white"/>
<path d="M106.666 53.1196C106.666 60.5006 100.691 66.4804 93.3344 66.4804C85.968 66.4804 80 60.5006 80 53.1196C80 45.7386 85.968 39.7587 93.3344 39.7587C100.691 39.7587 106.666 45.7386 106.666 53.1196Z" fill="white"/>
<path d="M133.334 13.3576C133.334 20.7386 139.306 26.7185 146.666 26.7185C154.029 26.7185 160 20.7386 160 13.3576C160 5.98302 154.029 -0.00323486 146.666 -0.00323486C139.306 -2.85148e-05 133.334 5.98302 133.334 13.3576Z" fill="white"/>
<path d="M213.648 13.3576C213.648 20.7386 219.622 26.7185 226.979 26.7185C234.346 26.7185 240.314 20.7386 240.314 13.3576C240.314 5.98302 234.346 -0.00323486 226.979 -0.00323486C219.622 -2.85148e-05 213.648 5.98302 213.648 13.3576Z" fill="white"/>
<path d="M213.648 53.1196C213.648 60.5006 219.622 66.4804 226.979 66.4804C234.346 66.4804 240.314 60.5006 240.314 53.1196C240.314 45.7386 234.346 39.7587 226.979 39.7587C219.622 39.7587 213.648 45.7386 213.648 53.1196Z" fill="white"/>
<path d="M253.334 53.1196C253.334 60.4942 259.306 66.4804 266.666 66.4804C274.026 66.4804 280 60.4942 280 53.1196C280 45.745 274.026 39.7587 266.666 39.7587C259.306 39.7587 253.334 45.745 253.334 53.1196Z" fill="white"/>
<path d="M293.334 53.1196C293.334 60.4942 299.306 66.4804 306.666 66.4804C314.026 66.4804 320 60.4942 320 53.1196C320 45.745 314.026 39.7587 306.666 39.7587C299.306 39.7587 293.334 45.745 293.334 53.1196Z" fill="white"/>
</g>
<defs>
<clipPath id="clip0_81_21967">
<rect width="320" height="320" fill="white"/>
</clipPath>
</defs>
</svg>
