<svg xmlns="http://www.w3.org/2000/svg" width="24" height="24" viewBox="0 0 24 24" >
  <mask id="mask0_106_4137" style="mask-type:alpha" maskUnits="userSpaceOnUse" x="0" y="0" width="24" height="24">
    <rect width="24" height="24"  />
  </mask>
  <g mask="url(#mask0_106_4137)">
    <path  d="M6.99998 16.8846C7.25126 16.8846 7.46152 16.8 7.63075 16.6308C7.79997 16.4615 7.88458 16.2513 7.88458 16C7.88458 15.7487 7.79997 15.5384 7.63075 15.3692C7.46152 15.2 7.25126 15.1154 6.99998 15.1154C6.74869 15.1154 6.53843 15.2 6.3692 15.3692C6.19998 15.5384 6.11538 15.7487 6.11538 16C6.11538 16.2513 6.19998 16.4615 6.3692 16.6308C6.53843 16.8 6.74869 16.8846 6.99998 16.8846ZM6.25 13.3846H7.74995V7.25H6.25V13.3846ZM11.25 16.75H17.75V15.25H11.25V16.75ZM11.25 12.75H17.75V11.25H11.25V12.75ZM11.25 8.74995H17.75V7.25H11.25V8.74995ZM4.3077 20.5C3.80257 20.5 3.375 20.325 3.025 19.975C2.675 19.625 2.5 19.1974 2.5 18.6923V5.3077C2.5 4.80257 2.675 4.375 3.025 4.025C3.375 3.675 3.80257 3.5 4.3077 3.5H19.6923C20.1974 3.5 20.625 3.675 20.975 4.025C21.325 4.375 21.5 4.80257 21.5 5.3077V18.6923C21.5 19.1974 21.325 19.625 20.975 19.975C20.625 20.325 20.1974 20.5 19.6923 20.5H4.3077ZM4.3077 19H19.6923C19.7692 19 19.8397 18.9679 19.9038 18.9038C19.9679 18.8397 20 18.7692 20 18.6923V5.3077C20 5.23077 19.9679 5.16024 19.9038 5.09613C19.8397 5.03203 19.7692 4.99998 19.6923 4.99998H4.3077C4.23077 4.99998 4.16024 5.03203 4.09613 5.09613C4.03202 5.16024 3.99998 5.23077 3.99998 5.3077V18.6923C3.99998 18.7692 4.03202 18.8397 4.09613 18.9038C4.16024 18.9679 4.23077 19 4.3077 19Z" fill="currentColor"/>
  </g>
</svg>