<svg width="398" height="200" viewBox="0 0 398 200" fill="currentColor" xmlns="http://www.w3.org/2000/svg">
<path d="M251.823 14.9368L252.613 14.4945L251.333 12.1248C250.599 12.5197 249.856 12.9147 249.122 13.3412C233.982 4.6012 216.808 0 199.327 0C181.846 0 164.672 4.6012 149.532 13.3412C148.703 12.8752 147.881 12.417 147.044 11.9747L145.78 14.3444C146.136 14.526 146.491 14.7314 146.847 14.921C128.385 26.3378 114.15 43.4635 106.301 63.7009C98.4512 83.9383 97.4151 106.183 103.35 127.063C109.284 147.942 121.866 166.317 139.186 179.4C156.506 192.484 177.621 199.562 199.327 199.562C221.033 199.562 242.148 192.484 259.468 179.4C276.788 166.317 289.37 147.942 295.304 127.063C301.239 106.183 300.203 83.9383 292.353 63.7009C284.504 43.4635 270.269 26.3378 251.807 14.921L251.823 14.9368ZM199.343 196.833C178.103 196.83 157.45 189.86 140.553 176.991C123.655 164.122 111.446 146.066 105.797 125.591C100.148 105.116 101.372 83.3534 109.281 63.6409C117.189 43.9283 131.346 27.3545 149.58 16.4613C151.365 17.5118 153.126 18.6098 154.832 19.7709L156.294 17.5276C154.959 16.6193 153.592 15.7504 152.21 14.9131C166.614 6.89941 182.824 2.69357 199.307 2.69357C215.79 2.69357 232.001 6.89941 246.404 14.9131C244.943 15.8057 243.49 16.7298 242.076 17.6935L243.608 19.9289C245.385 18.7204 247.226 17.5592 249.098 16.4613C267.332 27.3545 281.488 43.9283 289.397 63.6409C297.306 83.3534 298.529 105.116 292.881 125.591C287.232 146.066 275.022 164.122 258.125 176.991C241.227 189.86 220.575 196.83 199.335 196.833H199.343Z" fill="white"/>
<path d="M201.878 88.3095C202.242 85.3316 202.739 82.3616 203.371 79.4548L200.725 78.8782C200.164 81.469 199.698 84.1073 199.343 86.7771C198.972 84.0283 198.49 81.2479 197.889 78.5859L195.243 79.1784C195.907 82.1878 196.428 85.2605 196.823 88.3332C193.999 88.9579 191.505 90.6033 189.82 92.9537C188.134 95.3041 187.376 98.194 187.69 101.069C188.005 103.944 189.369 106.602 191.523 108.533C193.676 110.464 196.466 111.532 199.359 111.532C202.251 111.532 205.041 110.464 207.195 108.533C209.348 106.602 210.713 103.944 211.027 101.069C211.341 98.194 210.583 95.3041 208.897 92.9537C207.212 90.6033 204.718 88.9579 201.894 88.3332L201.878 88.3095Z" fill="white"/>
<path d="M233.703 176.311C236.452 178.642 239.323 180.826 242.305 182.851L243.829 180.608C240.926 178.638 238.131 176.513 235.456 174.242L233.703 176.311Z" fill="white"/>
<path d="M207.676 142.204C209.197 145.467 210.889 148.647 212.747 151.73L215.069 150.332C213.258 147.332 211.61 144.236 210.133 141.059L207.676 142.204Z" fill="white"/>
<path d="M218.821 160.663C221.001 163.527 223.332 166.272 225.804 168.886L227.771 167.022C225.358 164.478 223.082 161.807 220.954 159.02L218.821 160.663Z" fill="white"/>
<path d="M233.529 24.2498C230.785 26.5837 228.169 29.0649 225.693 31.6826L227.66 33.5468C230.07 31.0009 232.615 28.5856 235.283 26.3114L233.529 24.2498Z" fill="white"/>
<path d="M200.772 121.762C201.557 125.282 202.53 128.757 203.687 132.172L206.254 131.303C205.135 127.981 204.196 124.601 203.442 121.177L200.772 121.762Z" fill="white"/>
<path d="M272.107 6.69821L271.381 4.08368C267.91 5.05178 264.495 6.20939 261.152 7.55129L262.139 10.0631C265.398 8.75958 268.725 7.63624 272.107 6.69821Z" fill="white"/>
<path d="M397.4 89.2417C397.004 85.6524 396.414 82.0873 395.63 78.5624L392.984 79.1548C393.739 82.576 394.308 86.0355 394.69 89.5181L397.4 89.2417Z" fill="white"/>
<path d="M292.81 3.29361L292.668 0.58429C289.069 0.782086 285.483 1.17497 281.926 1.76122L282.368 4.43105C285.826 3.86576 289.312 3.48607 292.81 3.29361Z" fill="white"/>
<path d="M210.054 59.5498L207.589 58.436C206.083 61.7122 204.751 65.066 203.6 68.4834L206.167 69.3444C207.282 66.0106 208.579 62.7407 210.054 59.5498Z" fill="white"/>
<path d="M251.531 188.42C254.719 190.107 257.997 191.621 261.349 192.954L262.352 190.442C259.098 189.141 255.915 187.667 252.818 186.027L251.531 188.42Z" fill="white"/>
<path d="M220.867 41.564L218.695 39.921C216.515 42.7938 214.49 45.7813 212.629 48.8705L214.951 50.2607C216.766 47.2577 218.741 44.3546 220.867 41.564Z" fill="white"/>
<path d="M271.618 196.398C275.091 197.356 278.614 198.126 282.171 198.704L282.605 196.035C279.145 195.47 275.717 194.721 272.336 193.791L271.618 196.398Z" fill="white"/>
<path d="M381.412 150.253L383.727 151.651C385.591 148.566 387.283 145.38 388.798 142.109L386.341 140.972C384.866 144.152 383.221 147.25 381.412 150.253Z" fill="white"/>
<path d="M362.684 24.0523L360.938 26.1218C363.609 28.39 366.159 30.7972 368.577 33.3335L370.543 31.4694C368.056 28.8606 365.432 26.3848 362.684 24.0523Z" fill="white"/>
<path d="M293.016 197.149L292.866 199.826C294.643 199.921 296.444 199.968 298.221 199.968C299.998 199.968 301.87 199.913 303.671 199.818L303.521 197.109C300.023 197.308 296.516 197.321 293.016 197.149Z" fill="white"/>
<path d="M377.55 39.6838L375.401 41.3268C377.525 44.1167 379.5 47.017 381.318 50.0156L383.632 48.6175C381.768 45.5313 379.738 42.549 377.55 39.6838Z" fill="white"/>
<path d="M388.719 58.1359L386.262 59.2813C387.744 62.4587 389.049 65.7154 390.172 69.0364L392.739 68.1596C391.581 64.7482 390.239 61.4021 388.719 58.1359Z" fill="white"/>
<path d="M395.291 100.008V100.213C395.29 103.72 395.103 107.224 394.73 110.711L397.423 111.003C397.806 107.419 397.998 103.817 398 100.213V100.008H395.291Z" fill="white"/>
<path d="M390.235 131.209L392.802 132.077C393.955 128.65 394.918 125.161 395.686 121.627L393.039 121.051C392.294 124.486 391.358 127.877 390.235 131.209Z" fill="white"/>
<path d="M368.703 166.959L370.67 168.823C373.148 166.207 375.485 163.459 377.668 160.592L375.512 158.949C373.387 161.739 371.114 164.413 368.703 166.959Z" fill="white"/>
<path d="M334.193 190.403L335.196 192.923C338.542 191.587 341.811 190.068 344.99 188.373L343.727 186.003C340.63 187.64 337.447 189.109 334.193 190.403Z" fill="white"/>
<path d="M324.761 4.00458L324.043 6.61911C327.427 7.54644 330.757 8.65923 334.019 9.95245L335.022 7.4327C331.665 6.10788 328.24 4.96354 324.761 4.00458Z" fill="white"/>
<path d="M344.817 11.959L343.553 14.3287C346.652 15.969 349.661 17.7752 352.565 19.7395L354.082 17.4962C351.095 15.4866 348.002 13.6382 344.817 11.959Z" fill="white"/>
<path d="M352.716 180.561L354.24 182.796C357.218 180.769 360.086 178.585 362.834 176.256L361.081 174.186C358.407 176.458 355.615 178.586 352.716 180.561Z" fill="white"/>
<path d="M313.972 196.019L314.406 198.689C317.963 198.108 321.486 197.335 324.959 196.374L324.232 193.76C320.854 194.694 317.429 195.448 313.972 196.019Z" fill="white"/>
<path d="M303.466 0.568481L303.324 3.2778C306.825 3.45927 310.313 3.82842 313.774 4.38365L314.201 1.70592C310.645 1.13627 307.062 0.75658 303.466 0.568481Z" fill="white"/>
<path d="M5.62233 79.4549L2.9683 78.8782C2.20822 82.3975 1.63344 85.9543 1.24634 89.5338L3.93986 89.8261C4.3132 86.3412 4.87485 82.8791 5.62233 79.4549Z" fill="white"/>
<path d="M12.2969 59.5498L9.84035 58.436C8.32857 61.7029 6.99435 65.049 5.84351 68.4597L8.41065 69.3207C9.52931 65.9962 10.8266 62.7345 12.2969 59.5498Z" fill="white"/>
<path d="M9.91937 142.204C11.4395 145.468 13.135 148.648 14.9984 151.73L17.3127 150.332C15.5044 147.33 13.8565 144.235 12.3759 141.059L9.91937 142.204Z" fill="white"/>
<path d="M21.0726 160.663C23.2569 163.527 25.5931 166.272 28.071 168.886L30.0378 167.022C27.6247 164.478 25.3492 161.807 23.2211 159.02L21.0726 160.663Z" fill="white"/>
<path d="M3.05524 121.762C3.83059 125.282 4.79834 128.758 5.95413 132.172L8.52127 131.303C7.38213 127.983 6.42754 124.603 5.66187 121.177L3.05524 121.762Z" fill="white"/>
<path d="M3.39487 100.3H0.685547C0.686434 103.902 0.881557 107.501 1.27007 111.082L3.96359 110.79C3.5885 107.306 3.39866 103.804 3.39487 100.3Z" fill="white"/>
<path d="M137.25 7.4327C133.891 6.10643 130.463 4.96207 126.981 4.00458L126.278 6.61911C129.659 7.54697 132.987 8.65976 136.246 9.95245L137.25 7.4327Z" fill="white"/>
<path d="M116.452 1.70592C112.904 1.13738 109.329 0.757701 105.741 0.568481L105.599 3.2778C109.086 3.46068 112.561 3.82982 116.009 4.38365L116.452 1.70592Z" fill="white"/>
<path d="M54.8719 14.4945L53.6002 12.1249C50.4194 13.8151 47.3341 15.6795 44.3585 17.7094L45.883 19.9448C48.7786 17.9669 51.7793 16.1475 54.8719 14.4945Z" fill="white"/>
<path d="M23.1105 41.564L20.9541 39.921C18.7765 42.7922 16.7566 45.7798 14.9036 48.8705L17.2258 50.2607C19.0273 47.2566 20.9918 44.3534 23.1105 41.564Z" fill="white"/>
<path d="M74.3506 6.69821L73.6239 4.08368C70.1404 5.05161 66.7125 6.20921 63.3553 7.55129L64.3585 10.0631C67.6253 8.76 70.961 7.63667 74.3506 6.69821Z" fill="white"/>
<path d="M73.8214 196.398C77.3082 197.357 80.8441 198.127 84.4138 198.704L84.8483 196.035C81.3879 195.47 77.9602 194.721 74.5797 193.791L73.8214 196.398Z" fill="white"/>
<path d="M35.7724 24.2498C33.0304 26.5837 30.4173 29.065 27.9446 31.6826L29.9115 33.5468C32.3169 30.999 34.8588 28.5837 37.526 26.3114L35.7724 24.2498Z" fill="white"/>
<path d="M164.935 24.0523L163.182 26.1218C165.854 28.3879 168.404 30.7953 170.82 33.3335L172.787 31.4694C170.302 28.8606 167.681 26.3848 164.935 24.0523Z" fill="white"/>
<path d="M194.998 68.1596C193.84 64.7482 192.498 61.4021 190.978 58.1359L188.521 59.2813C190.003 62.4587 191.308 65.7154 192.431 69.0364L194.998 68.1596Z" fill="white"/>
<path d="M183.663 150.253L185.986 151.651C187.844 148.564 189.534 145.379 191.049 142.109L188.592 140.972C187.118 144.152 185.472 147.25 183.663 150.253Z" fill="white"/>
<path d="M136.436 190.403L137.439 192.923C140.787 191.587 144.06 190.068 147.242 188.373L145.97 186.003C142.873 187.64 139.691 189.109 136.436 190.403Z" fill="white"/>
<path d="M170.946 166.959L172.913 168.823C175.392 166.207 177.728 163.459 179.911 160.592L177.755 158.949C175.632 161.741 173.359 164.415 170.946 166.959Z" fill="white"/>
<path d="M179.793 39.6838L177.621 41.3268C179.745 44.1167 181.72 47.017 183.537 50.0156L185.859 48.6175C183.998 45.5336 181.973 42.5514 179.793 39.6838Z" fill="white"/>
<path d="M154.959 180.561L156.483 182.796C159.464 180.772 162.332 178.589 165.077 176.256L163.324 174.186C160.652 176.46 157.86 178.588 154.959 180.561Z" fill="white"/>
<path d="M53.774 188.42C56.9602 190.107 60.2351 191.62 63.5844 192.954L64.5797 190.442C61.3259 189.14 58.1434 187.666 55.0457 186.027L53.774 188.42Z" fill="white"/>
<path d="M116.215 196.019L116.649 198.689C120.206 198.109 123.729 197.336 127.202 196.374L126.475 193.76C123.098 194.695 119.673 195.45 116.215 196.019Z" fill="white"/>
<path d="M35.9225 176.311C38.6689 178.642 41.5376 180.826 44.5165 182.851L46.041 180.608C43.1373 178.638 40.3423 176.513 37.6681 174.242L35.9225 176.311Z" fill="white"/>
<path d="M192.479 131.209L195.046 132.077C196.197 128.649 197.163 125.16 197.937 121.627L195.291 121.051C194.539 124.485 193.6 127.876 192.479 131.209Z" fill="white"/>
<path d="M84.1769 1.76122L84.6113 4.43105C88.0719 3.86533 91.5603 3.48564 95.0616 3.29361L94.9115 0.58429C91.3146 0.781658 87.7311 1.17455 84.1769 1.76122Z" fill="white"/>
<path d="M95.259 197.149L95.1168 199.858C96.8862 199.953 98.6871 200 100.464 200C102.242 200 104.114 199.945 105.915 199.85L105.741 197.141C102.249 197.328 98.7506 197.33 95.259 197.149Z" fill="white"/>
</svg>
