<svg xmlns="http://www.w3.org/2000/svg" width="24" height="24" viewBox="0 0 24 24" fill="currentColor">
  <path d="M7.29101 20.8196L2.00001 21.9956L3.17601 16.7046C2.40154 15.256 1.99754 13.6383 2.00001 11.9956C2.00001 6.47261 6.47701 1.99561 12 1.99561C17.523 1.99561 22 6.47261 22 11.9956C22 17.5186 17.523 21.9956 12 21.9956C10.3574 21.9981 8.73963 21.5941 7.29101 20.8196ZM7.58101 18.7066L8.23401 19.0566C9.39256 19.6757 10.6864 19.9983 12 19.9956C13.5823 19.9956 15.129 19.5264 16.4446 18.6474C17.7602 17.7683 18.7855 16.5189 19.391 15.0571C19.9965 13.5953 20.155 11.9867 19.8463 10.4349C19.5376 8.88304 18.7757 7.45757 17.6569 6.33875C16.538 5.21993 15.1126 4.45801 13.5607 4.14932C12.0089 3.84064 10.4004 3.99907 8.93854 4.60457C7.47674 5.21007 6.22731 6.23545 5.34825 7.55104C4.4692 8.86664 4.00001 10.4134 4.00001 11.9956C4.00001 13.3296 4.32501 14.6136 4.94001 15.7616L5.28901 16.4146L4.63401 19.3616L7.58101 18.7066ZM7.00001 11.9956H9.00001C9.00001 12.7913 9.31608 13.5543 9.87869 14.1169C10.4413 14.6795 11.2044 14.9956 12 14.9956C12.7957 14.9956 13.5587 14.6795 14.1213 14.1169C14.6839 13.5543 15 12.7913 15 11.9956H17C17 13.3217 16.4732 14.5935 15.5355 15.5311C14.5979 16.4688 13.3261 16.9956 12 16.9956C10.6739 16.9956 9.40216 16.4688 8.46448 15.5311C7.5268 14.5935 7.00001 13.3217 7.00001 11.9956Z" fill="currenetColor"/>
</svg>