<svg width="398" height="200" viewBox="0 0 398 200" fill="currentColor" xmlns="http://www.w3.org/2000/svg">
<path d="M359.013 20.7915C359.534 20.1263 359.912 19.3612 360.124 18.5438C360.336 17.7264 360.379 16.8741 360.248 16.0397C360.117 15.2054 359.816 14.4068 359.364 13.6936C358.911 12.9804 358.317 12.3678 357.618 11.8937C356.919 11.4197 356.13 11.0944 355.301 10.938C354.471 10.7816 353.617 10.7974 352.794 10.9845C351.97 11.1716 351.194 11.5259 350.513 12.0255C349.832 12.5252 349.261 13.1594 348.836 13.8889C326.113 0.477306 299.009 -3.40596 273.435 3.08593C257.256 -1.01533 240.31 -1.01533 224.131 3.08593C207.952 -1.01682 191.005 -1.01682 174.826 3.08593C158.647 -1.01533 141.701 -1.01533 125.522 3.08593C110.76 -0.668719 95.3365 -1.0018 80.4269 2.11211C65.5172 5.22601 51.5159 11.7046 39.4913 21.0535C27.4667 30.4025 17.7366 42.3747 11.0435 56.0566C4.3503 69.7385 0.870972 84.7686 0.870972 100C0.870972 115.231 4.3503 130.261 11.0435 143.943C17.7366 157.625 27.4667 169.597 39.4913 178.946C51.5159 188.295 65.5172 194.774 80.4269 197.888C95.3365 201.002 110.76 200.669 125.522 196.914C141.699 201.027 158.649 201.027 174.826 196.914C191.003 201.029 207.953 201.029 224.131 196.914C240.308 201.027 257.258 201.027 273.435 196.914C295.728 202.577 319.291 200.378 340.151 190.689C361.011 181 377.891 164.413 387.945 143.727C397.999 123.04 400.611 99.5189 395.34 77.1304C390.07 54.742 377.24 34.8561 359.013 20.8267V20.7915ZM298.07 1.77408C315.691 1.75479 332.99 6.5038 348.131 15.5177C347.81 16.7516 347.879 18.0549 348.329 19.2478C348.78 20.4408 349.589 21.4647 350.645 22.1785C351.702 22.8922 352.954 23.2607 354.229 23.233C355.504 23.2054 356.739 22.783 357.763 22.0241C369.632 31.0941 379.273 42.7542 385.951 56.1157C392.63 69.4771 396.169 84.187 396.3 99.1239H348.756C348.548 77.6754 341.459 56.8604 328.534 39.7428C315.608 22.6251 297.529 10.109 276.957 4.0368C283.892 2.52026 290.971 1.76157 298.07 1.77408ZM331.667 147.601C330.399 147.595 329.16 147.981 328.12 148.706C327.079 149.43 326.287 150.458 325.852 151.649C325.417 152.839 325.36 154.136 325.688 155.36C326.017 156.585 326.715 157.678 327.688 158.492C314.314 176.539 295.171 189.469 273.435 195.136C265.45 193.063 257.758 189.989 250.544 185.988C265.324 177.209 277.592 164.769 286.165 149.868C294.737 134.968 299.326 118.11 299.487 100.92H313.24C313.462 102.377 314.198 103.706 315.316 104.666C316.434 105.626 317.859 106.154 319.332 106.154C320.806 106.154 322.231 105.626 323.348 104.666C324.466 103.706 325.203 102.377 325.425 100.92H346.996C346.868 117.517 342.51 133.808 334.335 148.252C333.507 147.835 332.594 147.613 331.667 147.601ZM55.0604 122.949H54.7347C53.0075 115.719 52.1066 108.317 52.0493 100.885H99.5929C99.7758 123.608 107.726 145.585 122.123 163.167C121.161 164.315 120.649 165.774 120.684 167.271C120.719 168.769 121.298 170.202 122.314 171.304C123.329 172.405 124.71 173.1 126.2 173.256C127.69 173.413 129.186 173.022 130.408 172.156C135.902 177.427 141.978 182.056 148.519 185.953C141.304 189.954 133.613 193.028 125.627 195.1C110.355 191.106 96.2648 183.504 84.5413 172.932C72.8177 162.361 63.8035 149.129 58.2564 134.35C59.4117 133.656 60.3075 132.602 60.8067 131.35C61.3059 130.098 61.3809 128.717 61.0203 127.419C60.6597 126.12 59.8833 124.975 58.81 124.16C57.7368 123.345 56.4258 122.904 55.078 122.905L55.0604 122.949ZM250.227 99.1151C250.035 75.1349 241.197 52.0291 225.337 34.0421C232.141 26.5469 240.054 20.1392 248.8 15.0423C263.551 23.6055 275.82 35.8594 284.401 50.5998C292.982 65.3402 297.581 82.0597 297.744 99.1151H250.227ZM198.096 99.1151H150.553C150.742 75.6382 159.37 53.0128 174.861 35.3715C188.171 50.5222 196.473 69.4153 198.633 89.4655C198.299 92.6439 198.123 95.8663 198.096 99.1239V99.1151ZM198.096 100.876C198.096 104.134 198.275 107.362 198.633 110.561C196.472 130.611 188.169 149.503 174.861 164.655C159.37 147.014 150.742 124.388 150.553 100.911L198.096 100.876ZM200.949 100.876H248.492C248.304 124.368 239.666 147.008 224.157 164.655C210.849 149.503 202.547 130.611 200.385 110.561C200.737 107.368 200.925 104.142 200.949 100.885V100.876ZM200.949 99.1151C200.949 95.8575 200.746 92.6351 200.412 89.4303C202.572 69.3801 210.874 50.487 224.183 35.3363C239.675 52.9776 248.303 75.603 248.492 99.0799L200.949 99.1151ZM224.157 32.7214C217.488 25.4248 209.781 19.1504 201.283 14.1002C208.496 10.092 216.188 7.01525 224.175 4.94365C232.162 7.01525 239.854 10.092 247.066 14.1002C238.557 19.1524 230.838 25.4297 224.157 32.7302V32.7214ZM222.986 34.0421C210.771 47.8949 202.647 64.8707 199.522 83.0736C196.396 64.8738 188.272 47.9013 176.059 34.0509C182.863 26.5557 190.776 20.148 199.522 15.0511C208.269 20.148 216.182 26.5557 222.986 34.0509V34.0421ZM174.888 32.7214C172.886 30.5321 170.791 28.4308 168.602 26.4175C169.411 25.3549 169.847 24.0552 169.843 22.7197C169.837 21.4713 169.453 20.2541 168.74 19.2291C168.028 18.2041 167.02 17.4197 165.852 16.9797C164.684 16.5397 163.41 16.4648 162.198 16.765C160.986 17.0652 159.894 17.7263 159.066 18.6609C156.786 17.0232 154.426 15.4825 152.023 14.0474C159.235 10.0392 166.927 6.96243 174.914 4.89083C182.901 6.96243 190.593 10.0392 197.806 14.0474C189.288 19.1128 181.566 25.4084 174.888 32.7302V32.7214ZM158.107 20.1312C157.725 20.9408 157.527 21.8246 157.526 22.7197C157.522 23.8657 157.839 24.99 158.439 25.9662C159.04 26.9423 159.9 27.7318 160.925 28.2458C161.949 28.7597 163.096 28.9779 164.238 28.8758C165.379 28.7737 166.47 28.3554 167.386 27.6677C169.593 29.7045 171.709 31.8322 173.734 34.0509C157.874 52.0379 149.036 75.1437 148.845 99.1239H101.301C101.464 82.0685 106.062 65.349 114.644 50.6086C123.225 35.8682 135.494 23.6143 150.244 15.0511C152.95 16.63 155.571 18.3263 158.107 20.14V20.1312ZM99.5401 99.1151H52.0493C52.2727 77.5134 59.5981 56.5854 72.8955 39.5599C86.1928 22.5345 104.723 10.3578 125.627 4.90843C133.614 6.98003 141.306 10.0568 148.519 14.065C133.734 22.839 121.459 35.2755 112.88 50.1745C104.301 65.0735 99.7066 81.9322 99.5401 99.1239V99.1151ZM131.623 170.915C132.501 169.76 132.943 168.332 132.872 166.883C132.801 165.434 132.221 164.057 131.234 162.994C130.248 161.93 128.918 161.249 127.478 161.07C126.039 160.89 124.582 161.225 123.365 162.014C109.244 144.753 101.447 123.185 101.266 100.885H148.809C149.001 124.862 157.839 147.966 173.699 165.949C166.897 173.447 158.984 179.855 150.236 184.949C143.503 181.02 137.256 176.313 131.623 170.924V170.915ZM174.888 167.296C181.558 174.613 189.272 180.905 197.779 185.97C190.565 189.972 182.873 193.045 174.888 195.118C166.902 193.045 159.211 189.972 151.996 185.97C160.502 180.903 168.216 174.611 174.888 167.296ZM176.059 165.967C188.275 152.115 196.399 135.138 199.522 116.935C202.649 135.132 210.773 152.102 222.986 165.949C216.184 173.447 208.271 179.855 199.522 184.949C190.774 179.855 182.861 173.447 176.059 165.949V165.967ZM224.157 167.296C230.829 174.611 238.543 180.903 247.048 185.97C239.834 189.972 232.142 193.045 224.157 195.118C216.172 193.045 208.48 189.972 201.266 185.97C209.773 180.905 217.487 174.613 224.157 167.296ZM225.337 165.967C241.197 147.983 250.035 124.88 250.227 100.902H297.77C297.607 117.957 293.009 134.675 284.428 149.414C275.847 164.153 263.578 176.405 248.827 184.966C240.068 179.869 232.145 173.455 225.337 165.949V165.967ZM325.442 99.1415C325.22 97.6848 324.484 96.3559 323.366 95.3957C322.248 94.4355 320.823 93.9076 319.35 93.9076C317.876 93.9076 316.452 94.4355 315.334 95.3957C314.216 96.3559 313.479 97.6848 313.257 99.1415H299.505C299.339 81.9562 294.748 65.1034 286.176 50.208C277.603 35.3126 265.337 22.877 250.561 14.1002C257.774 10.092 265.466 7.01525 273.453 4.94365C294.357 10.393 312.887 22.5697 326.185 39.5951C339.482 56.6206 346.807 77.5486 347.031 99.1503L325.442 99.1415ZM248.8 1.77408C255.906 1.76946 262.991 2.53701 269.931 4.06321C262.563 6.22015 255.472 9.22803 248.8 13.0261C242.127 9.23111 235.036 6.22338 227.67 4.06321C234.61 2.53604 241.695 1.76848 248.8 1.77408ZM199.496 1.77408C206.602 1.76897 213.687 2.53652 220.626 4.06321C213.26 6.22338 206.169 9.23111 199.496 13.0261C192.823 9.23111 185.732 6.22338 178.366 4.06321C185.314 2.53462 192.408 1.76705 199.522 1.77408H199.496ZM150.192 1.77408C157.297 1.76848 164.382 2.53604 171.322 4.06321C163.956 6.22338 156.865 9.23111 150.192 13.0261C143.52 9.22803 136.429 6.22015 129.061 4.06321C136.018 2.5332 143.121 1.76562 150.244 1.77408H150.192ZM100.887 1.77408C107.993 1.76897 115.078 2.53652 122.018 4.06321C101.463 10.1467 83.4023 22.6641 70.4908 39.7754C57.5793 56.8867 50.4981 77.6889 50.2885 99.1239H2.7449C3.00452 73.2332 13.4649 48.4895 31.8556 30.2636C50.2463 12.0378 75.0831 1.8006 100.975 1.77408H100.887ZM100.887 198.235C75.0103 198.185 50.196 187.938 31.8243 169.714C13.4526 151.491 3.00434 126.76 2.7449 100.885H50.2885C50.3482 108.442 51.2668 115.968 53.0266 123.318C51.6682 123.811 50.5261 124.766 49.8 126.015C49.074 127.265 48.81 128.73 49.0544 130.154C49.2988 131.578 50.0359 132.871 51.137 133.807C52.238 134.743 53.633 135.263 55.078 135.275C55.6012 135.275 56.1222 135.207 56.6276 135.072C62.1009 149.582 70.8587 162.629 82.2153 173.19C93.572 183.75 107.219 191.539 122.088 195.946C115.153 197.466 108.075 198.234 100.975 198.235H100.887ZM150.192 198.235C143.086 198.235 136.002 197.468 129.061 195.946C136.427 193.785 143.518 190.777 150.192 186.983C156.866 190.774 163.957 193.781 171.322 195.946C164.399 197.465 157.332 198.232 150.244 198.235H150.192ZM199.496 198.235C192.391 198.235 185.306 197.468 178.366 195.946C185.731 193.781 192.821 190.774 199.496 186.983C206.171 190.774 213.261 193.781 220.626 195.946C213.695 197.466 206.619 198.233 199.522 198.235H199.496ZM248.8 198.235C241.695 198.236 234.61 197.468 227.67 195.946C235.035 193.781 242.126 190.774 248.8 186.983C255.474 190.777 262.565 193.785 269.931 195.946C262.99 197.468 255.906 198.235 248.8 198.235ZM298.105 198.235C291 198.235 283.915 197.468 276.974 195.946C297.89 189.752 316.218 176.913 329.184 159.372C330.519 159.947 332.013 160.031 333.404 159.611C334.795 159.191 335.992 158.293 336.785 157.075C337.578 155.858 337.916 154.399 337.738 152.957C337.56 151.516 336.879 150.183 335.814 149.194C344.178 134.459 348.634 117.828 348.756 100.885H396.3C396.04 126.776 385.58 151.519 367.189 169.745C348.799 187.971 323.962 198.208 298.07 198.235H298.105Z" fill="white"/>
</svg>
