<svg width="765" height="313" viewBox="0 0 765 313" fill="none" xmlns="http://www.w3.org/2000/svg">
<circle cx="59" cy="261" r="36" transform="rotate(10.7646 59 261)" fill="white"/>
<path d="M46.1789 287.128L50.3197 288.571L52.1209 283.825C55.2446 284.637 58.5443 284.607 62.02 283.733C65.4956 282.86 67.9686 280.485 69.4392 276.61C70.514 273.778 70.5319 271.05 69.4928 268.427C68.4537 265.803 65.7336 262.732 61.3326 259.213C57.2681 256.034 54.8006 253.662 53.9302 252.096C53.0597 250.53 53.0163 248.714 53.7997 246.65C54.5832 244.585 56.0762 243.159 58.2786 242.37C60.481 241.581 62.976 241.672 65.7635 242.644C67.9071 243.391 69.5146 244.484 70.5863 245.924C71.658 247.363 72.363 248.961 72.7015 250.718L76.8971 250.612C76.6447 248.322 75.8109 246.187 74.3954 244.207C72.9801 242.228 71.1967 240.778 69.0453 239.858L70.8466 235.112L66.7058 233.669L64.9046 238.415C61.0014 237.718 57.7174 238.063 55.0527 239.448C52.3881 240.833 50.5902 242.753 49.659 245.207C48.5546 248.117 48.6247 250.778 49.8693 253.191C51.1139 255.604 53.7032 258.386 57.6373 261.537C61.5704 264.723 64.0726 267.234 65.1441 269.07C66.2155 270.906 66.321 272.957 65.4608 275.224C64.38 278.072 62.518 279.744 59.8747 280.241C57.2315 280.738 54.6677 280.554 52.1831 279.688C49.7528 278.841 47.8167 277.398 46.3747 275.36C44.9327 273.321 44.1026 270.846 43.8843 267.933L39.5809 268.177C39.7314 271.366 40.5236 274.087 41.9577 276.34C43.3917 278.593 45.4248 280.54 48.057 282.179L46.1789 287.128Z" fill="black"/>
<path d="M765 0L737.116 7.47146L757.529 27.8839L765 0ZM81.3579 291.642L83.1256 293.41L81.3579 291.642ZM493.358 243.358L495.126 241.59L493.358 243.358ZM521.642 243.358L523.41 245.126L521.642 243.358ZM435.358 213.642L433.59 211.874L435.358 213.642ZM463.642 213.642L461.874 215.41L463.642 213.642ZM353.858 266.858L355.626 265.09L353.858 266.858ZM382.142 266.858L383.91 268.626L382.142 266.858ZM295.858 237.142L297.626 238.91L295.858 237.142ZM324.142 237.142L322.374 238.91L324.142 237.142ZM206.358 298.358L208.126 296.59L206.358 298.358ZM234.642 298.358L236.41 300.126L234.642 298.358ZM152.874 248.41L204.59 300.126L208.126 296.59L156.41 244.874L152.874 248.41ZM236.41 300.126L297.626 238.91L294.09 235.374L232.874 296.59L236.41 300.126ZM322.374 238.91L352.09 268.626L355.626 265.09L325.91 235.374L322.374 238.91ZM383.91 268.626L437.126 215.41L433.59 211.874L380.374 265.09L383.91 268.626ZM461.874 215.41L491.59 245.126L495.126 241.59L465.41 211.874L461.874 215.41ZM523.41 245.126L750.858 17.6777L747.322 14.1421L519.874 241.59L523.41 245.126ZM124.59 244.874L99.2322 270.232L102.768 273.768L128.126 248.41L124.59 244.874ZM99.2322 270.232L79.5901 289.874L83.1256 293.41L102.768 273.768L99.2322 270.232ZM67.2157 295H0V300H67.2157V295ZM79.5901 289.874C76.3082 293.156 71.857 295 67.2157 295V300C73.1831 300 78.9061 297.629 83.1256 293.41L79.5901 289.874ZM491.59 245.126C500.377 253.912 514.623 253.912 523.41 245.126L519.874 241.59C513.04 248.424 501.96 248.424 495.126 241.59L491.59 245.126ZM437.126 215.41C443.96 208.576 455.04 208.576 461.874 215.41L465.41 211.874C456.623 203.088 442.377 203.088 433.59 211.874L437.126 215.41ZM352.09 268.626C360.877 277.412 375.123 277.412 383.91 268.626L380.374 265.09C373.54 271.924 362.46 271.924 355.626 265.09L352.09 268.626ZM297.626 238.91C304.46 232.076 315.54 232.076 322.374 238.91L325.91 235.374C317.123 226.588 302.877 226.588 294.09 235.374L297.626 238.91ZM204.59 300.126C213.377 308.912 227.623 308.912 236.41 300.126L232.874 296.59C226.04 303.424 214.96 303.424 208.126 296.59L204.59 300.126ZM156.41 244.874C147.623 236.088 133.377 236.088 124.59 244.874L128.126 248.41C134.96 241.576 146.04 241.576 152.874 248.41L156.41 244.874Z" fill="white"/>
</svg>
