<svg width="20" height="20" viewBox="0 0 20 20" fill="none" xmlns="http://www.w3.org/2000/svg">
<g id="ungroup">
<mask id="mask0_180_23565" style="mask-type:alpha" maskUnits="userSpaceOnUse" x="0" y="0" width="20" height="20">
<rect id="Bounding box" width="20" height="20" fill="#D9D9D9"/>
</mask>
<g mask="url(#mask0_180_23565)">
<path id="ungroup_2" d="M11.0415 9.8283L7.6809 13.1889C7.56551 13.3043 7.42182 13.3607 7.24982 13.358C7.07782 13.3553 6.93412 13.2963 6.81873 13.1809C6.70336 13.0655 6.64567 12.92 6.64567 12.7445C6.64567 12.5689 6.70336 12.4243 6.81873 12.3107L10.1713 8.95813H7.49982C7.32273 8.95813 7.1743 8.89821 7.05452 8.77838C6.93473 8.65853 6.87484 8.51003 6.87484 8.33288C6.87484 8.15571 6.93473 8.0073 7.05452 7.88765C7.1743 7.768 7.32273 7.70817 7.49982 7.70817H11.5383C11.7517 7.70817 11.9306 7.78035 12.0749 7.92471C12.2193 8.06907 12.2915 8.24796 12.2915 8.46136V12.4998C12.2915 12.6769 12.2315 12.8253 12.1117 12.9451C11.9919 13.0649 11.8434 13.1248 11.6662 13.1248C11.489 13.1248 11.3406 13.0649 11.221 12.9451C11.1013 12.8253 11.0415 12.6769 11.0415 12.4998V9.8283ZM10.6248 4.16648C10.4477 4.16648 10.2993 4.10656 10.1795 3.98671C10.0597 3.86688 9.99982 3.71838 9.99982 3.54121C9.99982 3.36406 10.0597 3.21566 10.1795 3.096C10.2993 2.97634 10.4477 2.9165 10.6248 2.9165H15.5767C15.991 2.9165 16.3456 3.06401 16.6406 3.35903C16.9356 3.65403 17.0831 4.00866 17.0831 4.42292V9.37484C17.0831 9.55191 17.0232 9.70034 16.9034 9.82013C16.7835 9.93992 16.635 9.99982 16.4579 9.99982C16.2807 9.99982 16.1323 9.93992 16.0126 9.82013C15.893 9.70034 15.8332 9.55191 15.8332 9.37484V4.42292C15.8332 4.34813 15.8091 4.28669 15.761 4.23861C15.7129 4.19052 15.6515 4.16648 15.5767 4.16648H10.6248ZM4.42292 17.0831C4.00198 17.0831 3.64567 16.9373 3.354 16.6456C3.06234 16.354 2.9165 15.9977 2.9165 15.5767V3.5415C2.9165 3.36442 2.97643 3.21598 3.09627 3.09619C3.21612 2.9764 3.36462 2.9165 3.54177 2.9165C3.71894 2.9165 3.86735 2.9764 3.987 3.09619C4.10666 3.21598 4.16648 3.36442 4.16648 3.5415V15.5767C4.16648 15.6408 4.19319 15.6996 4.24661 15.753C4.30004 15.8064 4.35881 15.8332 4.42292 15.8332H16.4581C16.6352 15.8332 16.7837 15.8931 16.9034 16.0129C17.0232 16.1328 17.0831 16.2813 17.0831 16.4584C17.0831 16.6356 17.0232 16.784 16.9034 16.9036C16.7837 17.0233 16.6352 17.0831 16.4581 17.0831H4.42292Z" fill="#A5D9FF"/>
</g>
</g>
</svg>
